<?xml version="1.0" encoding="utf-8"?>
<!-- Generator: Adobe Illustrator 22.1.0, SVG Export Plug-In . SVG Version: 6.00 Build 0)  -->
<svg version="1.1" id="Layer_1" xmlns="http://www.w3.org/2000/svg" xmlns:xlink="http://www.w3.org/1999/xlink" x="0px" y="0px"
	 viewBox="0 0 500 500" style="enable-background:new 0 0 500 500;" xml:space="preserve">
<style type="text/css">
	.st0{fill:#6E6F71;}
</style>
<g>
	<g>
		<g>
			<path class="st0" d="M385.1,212.6c-2.3,0-4.7-0.9-6.5-2.7c-3.6-3.6-3.6-9.3,0-12.9l57-57c3.6-3.6,9.3-3.6,12.9,0
				c3.6,3.6,3.6,9.3,0,12.9l-57,57C389.8,211.7,387.4,212.6,385.1,212.6z"/>
		</g>
		<g>
			<path class="st0" d="M442.1,212.6c-2.3,0-4.7-0.9-6.5-2.7l-57-57c-3.6-3.6-3.6-9.3,0-12.9c3.6-3.6,9.3-3.6,12.9,0l57,57
				c3.6,3.6,3.6,9.3,0,12.9C446.8,211.7,444.4,212.6,442.1,212.6z"/>
		</g>
	</g>
	<g>
		<g>
			<path class="st0" d="M173.6,478.2c-1.7,0-3.5-0.5-5-1.5c-2.6-1.7-4.1-4.6-4.1-7.6V99.4c0-3.6,2.1-6.9,5.4-8.3L325,22.6
				c2.8-1.2,6.1-1,8.7,0.7s4.1,4.6,4.1,7.6v369.6c0,3.6-2.1,6.9-5.4,8.3l-155.1,68.4C176.1,477.9,174.8,478.2,173.6,478.2z
				 M182.7,105.4V455l136.9-60.4V45L182.7,105.4z"/>
		</g>
		<g>
			<path class="st0" d="M483.8,478.2c-1.3,0-2.5-0.3-3.7-0.8L325,408.9c-3.3-1.5-5.4-4.7-5.4-8.3V31c0-3.1,1.6-6,4.1-7.6
				c2.6-1.7,5.8-2,8.7-0.7l155.1,68.4c3.3,1.5,5.4,4.7,5.4,8.3V345c0,5-4.1,9.1-9.1,9.1c-5,0-9.1-4.1-9.1-9.1V105.4L337.8,45v349.7
				L474.7,455v-55.3c0-5,4.1-9.1,9.1-9.1c5,0,9.1,4.1,9.1,9.1V469c0,3.1-1.6,6-4.1,7.6C487.3,477.7,485.6,478.2,483.8,478.2z"/>
		</g>
		<g>
			<path class="st0" d="M175.1,478.2c-1.3,0-2.5-0.3-3.7-0.8L16.3,408.9c-3.3-1.5-5.4-4.7-5.4-8.3V31c0-3.1,1.6-6,4.1-7.6
				c2.6-1.7,5.8-2,8.7-0.7l155.1,68.4c3.3,1.5,5.4,4.7,5.4,8.3V469c0,3.1-1.6,6-4.1,7.6C178.6,477.7,176.8,478.2,175.1,478.2z
				 M29.1,394.6L166,455V105.4L29.1,45V394.6z"/>
		</g>
	</g>
	<g>
		<path class="st0" d="M333.4,347.3c-4.2,0-7.9-2.9-8.9-7.1c-1.1-4.9,2-9.8,6.9-10.9c7.7-1.7,15.1-4.3,22.2-7.7
			c4.5-2.2,10-0.2,12.2,4.3c2.2,4.5,0.3,10-4.3,12.2c-8.3,4-17.1,7-26.1,9C334.7,347.2,334,347.3,333.4,347.3z M282.8,346.3
			c-0.8,0-1.6-0.1-2.5-0.3c-2.6-0.7-5.1-1.6-7.6-2.5c-6.7-2.5-12.8-5.4-18.1-8.7c-4.3-2.7-5.6-8.3-2.9-12.6
			c2.7-4.3,8.3-5.6,12.6-2.9c4.2,2.7,9.2,5,14.7,7.1c2,0.7,4.1,1.4,6.3,2c4.9,1.4,7.7,6.4,6.3,11.3
			C290.4,343.7,286.8,346.3,282.8,346.3z M75.9,344c-4.6,0-8.5-3.4-9.1-8.1c0-0.4-1-8.9-1-22.1c0-1.5,0-3,0-4.6c0.1-5,4.1-9,9.3-9
			c5,0.1,9,4.3,9,9.3c0,1.5,0,2.9,0,4.3c0,12.1,0.9,20,0.9,20.1c0.6,5-3.1,9.5-8.1,10.1C76.5,344,76.2,344,75.9,344z M396.1,306.5
			c-1.7,0-3.5-0.5-5-1.5c-4.2-2.8-5.4-8.4-2.6-12.6c4.3-6.4,7.2-13.2,8.6-20.2c1-4.9,5.9-8.1,10.8-7.1c4.9,1,8.1,5.9,7.1,10.8
			c-1.9,9.2-5.7,18.2-11.3,26.5C402,305,399.1,306.5,396.1,306.5z M233.1,294.6c-4.6,0-8.5-3.4-9.1-8.1c-0.4-3.4-0.6-6.9-0.6-10.6
			c0-5.4,0.4-11,1.3-17.2c0.7-5,5.3-8.5,10.3-7.8c5,0.7,8.5,5.3,7.8,10.3c-0.7,5.4-1.1,10.2-1.1,14.7c0,3,0.2,5.8,0.5,8.4
			c0.6,5-3,9.5-8,10.1C233.8,294.6,233.4,294.6,233.1,294.6z M80.9,267.8c-0.7,0-1.4-0.1-2.1-0.2c-4.9-1.1-8-6-6.8-11
			c2.1-9,4.7-17.7,7.9-25.7c1.8-4.7,7.1-7,11.8-5.2c4.7,1.8,7,7.1,5.2,11.8c-2.8,7.2-5.2,15-7.1,23.2
			C88.8,264.9,85.1,267.8,80.9,267.8z M245.1,219.3c-0.7,0-1.4-0.1-2.1-0.2c-4.9-1.2-7.9-6.1-6.8-11c1.5-6.5,3.3-14.9,3.3-21.5
			c0-0.5,0-0.9,0-1.3c-0.2-5,3.7-9.3,8.8-9.5c5-0.2,9.3,3.7,9.5,8.8c0,0.7,0,1.4,0,2.1c0,8.5-2,18.2-3.8,25.7
			C252.9,216.4,249.2,219.3,245.1,219.3z M115.6,200.6c-2.4,0-4.7-0.9-6.5-2.7c-3.5-3.6-3.5-9.4,0.1-12.9
			c6.7-6.6,14.1-12.2,22.1-16.8c4.4-2.5,10-1,12.4,3.4c2.5,4.4,1,10-3.4,12.5c-6.7,3.8-12.9,8.5-18.4,14
			C120.3,199.7,118,200.6,115.6,200.6z M184.4,171c-4.7,0-8.7-3.6-9.1-8.4c-0.4-5,3.3-9.4,8.4-9.8c4.4-0.3,8.8-0.5,13.5-0.5
			c4.3,0,8.8,0.2,13.4,0.5c5,0.3,8.8,4.7,8.5,9.7c-0.3,5-4.8,8.8-9.7,8.5c-4.1-0.3-8.2-0.4-12.1-0.4c-4.1,0-8.1,0.2-12,0.5
			C184.9,171,184.7,171,184.4,171z"/>
	</g>
</g>
</svg>
