<?xml version="1.0" encoding="utf-8"?>
<!-- Generator: Adobe Illustrator 22.1.0, SVG Export Plug-In . SVG Version: 6.00 Build 0)  -->
<svg version="1.1" id="Layer_1" xmlns="http://www.w3.org/2000/svg" xmlns:xlink="http://www.w3.org/1999/xlink" x="0px" y="0px"
	 viewBox="0 0 1520 360" style="enable-background:new 0 0 1520 360;" xml:space="preserve">
<style type="text/css">
	.st0{font-family:'Futura-Bold';}
	.st1{font-size:90.2113px;}
	.st2{clip-path:url(#SVGID_2_);}
	.st3{clip-path:url(#SVGID_4_);fill:#FFFFFF;}
	.st4{clip-path:url(#SVGID_4_);fill-rule:evenodd;clip-rule:evenodd;fill:#231F20;}
	.st5{clip-path:url(#SVGID_4_);fill-rule:evenodd;clip-rule:evenodd;fill:#FFFFFF;}
	.st6{fill:#231F20;stroke:#231F20;stroke-width:2;stroke-miterlimit:10;}
	.st7{font-family:'Futura-Medium';}
	.st8{font-size:57.8053px;}
	.st9{fill:none;stroke:#231F20;stroke-width:11;stroke-miterlimit:10;}
</style>
<text transform="matrix(1 0 0 1 221.0518 147.4385)" class="st0 st1">COMMUNITY FESTIVAL</text>
<g>
	<g>
		<defs>
			<rect id="SVGID_1_" x="284.2" y="75.8" width="74.8" height="74.8"/>
		</defs>
		<clipPath id="SVGID_2_">
			<use xlink:href="#SVGID_1_"  style="overflow:visible;"/>
		</clipPath>
		<g class="st2">
			<defs>
				<rect id="SVGID_3_" x="284.2" y="75.8" width="74.8" height="74.8"/>
			</defs>
			<clipPath id="SVGID_4_">
				<use xlink:href="#SVGID_3_"  style="overflow:visible;"/>
			</clipPath>
			<path class="st3" d="M284.7,76.3h74.8v74.8h-74.8V76.3z M322.2,150.2c20,0,36.3-16.4,36.1-36.7c-0.2-21.7-18-36.6-36.5-36.4
				c-19.8,0.2-35.7,16.5-35.8,36.9C286,133.9,302.3,150.2,322.2,150.2"/>
			<path class="st4" d="M322.2,150.2c-20,0-36.2-16.3-36.2-36.1c0.1-20.4,16.1-36.7,35.8-36.9c18.5-0.2,36.3,14.6,36.5,36.4
				C358.6,133.8,342.3,150.2,322.2,150.2 M356.1,113.8c0-19.1-14.9-34.2-33.7-34.2c-18.6,0-33.9,15.3-34,33.9
				c-0.1,18.7,15.1,34.1,33.5,34.4C340,148,356.5,133,356.1,113.8"/>
			<path class="st5" d="M356.1,113.8c0.4,19.2-16.1,34.3-34.1,34c-18.4-0.2-33.6-15.6-33.5-34.4c0.1-18.6,15.4-33.9,34-33.9
				C341.2,79.6,356.2,94.7,356.1,113.8 M320.1,103.5c0.2-0.2,0.5-0.4,0.7-0.5c0-1.8,0.1-3.5,0-5.3c0-0.4-0.5-0.9-0.9-1.1
				c-4.5-2.2-6.3-6.3-4.7-11c0.2-0.7,0.4-1.4,0.9-2.7c-2.1,0.7-3.6,1.3-5.2,1.8c-1.7,0.6-2.6,1.7-2.3,3.5c0.2,1.4,0.5,2.7,0.8,4.1
				c1.2,5.8-1.8,8.8-7.5,7.5c-1.3-0.3-2.6-0.5-3.9-0.5c-3-0.1-5.6,3.5-4.9,6.6c9.2-2.2,11.2-1.4,13.5,5.6h5.5
				c-0.5-1.6-0.9-3-1.4-4.4c-0.2-0.6-0.4-1.2-0.7-1.7c-0.8-1.7-0.2-3.4,1.2-4.1c1.2-0.6,3-0.3,4.3,0
				C317.1,101.8,318.6,102.8,320.1,103.5 M324.2,103.6c1.9-0.9,3.4-1.5,4.8-2.4c1.9-1.1,3.8-1.5,5.6,0.3c1.7,1.7,1.2,3.6,0.3,5.6
				c-0.6,1.4-0.9,3-1.4,4.5c1.6,0.1,3.2,0.2,4.8,0.3c0.1,0,0.1-0.1,0.3-0.2c0.5-2.9,2.2-5.4,5.2-5.9c2.6-0.5,5.4,0.1,8.1,0.2
				c0.4-4.8-2.5-7.4-7.7-6.2c-0.7,0.2-1.3,0.4-2,0.6c-3.1,0.7-5.6-0.6-6.2-3.7c-0.3-2,0.2-4.1,0.6-6.1c1-4.5-1.5-7.2-6.3-6.6
				c1.4,7.8,1.3,8.2-5.3,12.6c-0.4,0.3-0.8,0.8-0.8,1.3C324.2,99.6,324.2,101.3,324.2,103.6 M320.2,123.5c-2.2,0.9-3.9,1.5-5.5,2.3
				c-1.6,0.8-3.1,1.3-4.6,0c-1.5-1.4-1.2-3.1-0.5-4.7c0.3-0.6,0.8-1.2,1.1-1.8c0.4-1.2,0.7-2.4,1.1-3.8c-1.2-0.1-1.9-0.1-2.6-0.2
				c-1.9-0.2-3.2,0.1-3.9,2.4c-1,3.2-5.2,4.9-8.6,3.9c-1.3-0.3-2.6-0.9-3.9-1.4c1,8.2,2.8,8.4,9,6.7c0.5-0.1,1.1-0.2,1.6-0.2
				c3.9-0.1,5.8,1.8,5.6,5.7c-0.1,1.4-0.6,2.7-0.8,4.1c-0.8,4.1,2.1,6.9,6.4,6.3c-2.3-6.8-1.5-8.8,4.7-12.3c0.3-0.2,0.8-0.6,0.8-1
				C320.2,127.9,320.2,126.2,320.2,123.5 M332.7,115.9c0.5,1.6,0.7,3.1,1.4,4.4c1.1,2.1,1.5,4-0.1,5.9c-1.2,1.4-3.4,1.2-5.8-0.3
				c-1.1-0.7-2.4-1.2-3.9-2v6.6c3,0.6,5.4,2.1,5.8,5.1c0.4,2.6,0,5.3-0.1,7.9c4.5-0.2,6.1-2.2,5.4-6.8c-0.3-1.5-0.4-3.1-0.3-4.7
				c0.2-3,2.2-4.9,5.2-4.8c1.5,0.1,2.9,0.5,4.3,0.8c4.2,0.9,7.3-2.2,6.4-6.6c-6.8,2.4-11.2,0.4-12.6-5.8c-1.4,0-2.9,0-4.4,0
				C333.8,115.6,333.5,115.7,332.7,115.9 M322.3,109.6c-2.2,0-4,2-3.9,4.3c0.1,2.4,1.9,4.1,4.2,4.1c2.2-0.1,4-2.1,4-4.4
				C326.6,111.5,324.5,109.6,322.3,109.6 M346.6,117.8c1.9,0,3.8-1.8,3.8-3.7c0.1-2-1.6-3.8-3.7-3.8c-2.2,0-4,1.6-3.9,3.8
				C342.9,115.9,344.8,117.8,346.6,117.8 M301.7,113.4c0-2.2-1.5-3.8-3.6-3.8c-2,0-3.7,1.6-3.7,3.7c0,2.1,1.6,3.9,3.5,3.9
				C300.1,117.3,301.7,115.6,301.7,113.4 M325.6,138.3c-0.1-1.9-2-3.8-3.8-3.7c-1.9,0.1-3.7,2-3.6,3.9c0.1,1.9,2,3.8,3.8,3.7
				C323.9,142.1,325.7,140.2,325.6,138.3 M322.8,85.1c-2.2,0-3.8,1.5-3.9,3.5c-0.1,1.8,1.7,3.6,3.5,3.7c2.1,0.1,3.7-1.5,3.8-3.6
				C326.3,86.7,324.9,85.2,322.8,85.1"/>
			<path class="st4" d="M320.1,103.5c-1.5-0.8-3-1.7-4.6-2.2c-1.4-0.4-3.2-0.6-4.3,0c-1.4,0.7-1.9,2.4-1.2,4.1
				c0.3,0.6,0.5,1.1,0.7,1.7c0.4,1.4,0.9,2.7,1.4,4.4h-5.5c-2.4-6.9-4.3-7.8-13.5-5.6c-0.7-3.2,1.9-6.7,4.9-6.6
				c1.3,0,2.6,0.2,3.9,0.5c5.7,1.3,8.8-1.7,7.5-7.5c-0.3-1.4-0.6-2.7-0.8-4.1c-0.3-1.8,0.6-3,2.3-3.5c1.5-0.5,3.1-1,5.2-1.8
				c-0.4,1.3-0.6,2-0.9,2.7c-1.6,4.8,0.1,8.8,4.7,11c0.4,0.2,0.9,0.7,0.9,1.1c0.1,1.8,0,3.5,0,5.3
				C320.6,103.2,320.4,103.4,320.1,103.5"/>
			<path class="st4" d="M324.2,103.6c0-2.4-0.1-4.1,0-5.8c0-0.4,0.4-1,0.8-1.3c6.6-4.4,6.8-4.8,5.3-12.6c4.8-0.6,7.3,2,6.3,6.6
				c-0.4,2-0.9,4.2-0.6,6.1c0.5,3.1,3.1,4.4,6.2,3.7c0.7-0.2,1.3-0.4,2-0.6c5.2-1.2,8,1.4,7.7,6.2c-2.7-0.1-5.5-0.7-8.1-0.2
				c-2.9,0.6-4.6,3-5.2,5.9c-0.2,0.1-0.2,0.2-0.3,0.2c-1.6-0.1-3.2-0.2-4.8-0.3c0.5-1.5,0.8-3.1,1.4-4.5c0.9-2,1.4-3.9-0.3-5.6
				c-1.7-1.8-3.6-1.4-5.6-0.3C327.6,102.1,326.1,102.7,324.2,103.6"/>
			<path class="st4" d="M320.2,123.5c0,2.7,0,4.4,0,6.1c0,0.3-0.4,0.8-0.8,1c-6.2,3.5-7,5.4-4.7,12.3c-4.3,0.6-7.1-2.2-6.4-6.3
				c0.3-1.4,0.8-2.7,0.8-4.1c0.3-3.9-1.7-5.8-5.6-5.7c-0.5,0-1.1,0.1-1.6,0.2c-6.2,1.7-8,1.4-9-6.7c1.3,0.5,2.6,1.1,3.9,1.4
				c3.4,0.9,7.6-0.7,8.6-3.9c0.8-2.3,2-2.6,3.9-2.4c0.7,0.1,1.4,0.1,2.6,0.2c-0.4,1.4-0.7,2.6-1.1,3.8c-0.2,0.6-0.8,1.2-1.1,1.8
				c-0.8,1.7-1,3.4,0.5,4.7c1.4,1.3,3,0.8,4.6,0C316.3,125,318,124.4,320.2,123.5"/>
			<path class="st4" d="M332.7,115.9c0.8-0.2,1.1-0.3,1.4-0.3c1.5,0,3,0,4.4,0c1.4,6.2,5.8,8.2,12.6,5.8c0.8,4.4-2.2,7.5-6.4,6.6
				c-1.4-0.3-2.9-0.7-4.3-0.8c-3-0.1-5.1,1.7-5.2,4.8c-0.1,1.5,0,3.1,0.3,4.7c0.8,4.6-0.9,6.7-5.4,6.8c0.1-2.6,0.5-5.3,0.1-7.9
				c-0.4-3-2.8-4.5-5.8-5.1v-6.6c1.5,0.7,2.8,1.2,3.9,2c2.4,1.5,4.6,1.8,5.8,0.3c1.6-1.9,1.2-3.8,0.1-5.9
				C333.4,119,333.1,117.4,332.7,115.9"/>
			<path class="st4" d="M322.3,109.6c2.3,0,4.3,1.9,4.3,4c0,2.3-1.8,4.3-4,4.4c-2.3,0.1-4.1-1.7-4.2-4.1
				C318.3,111.6,320.1,109.7,322.3,109.6"/>
			<path class="st4" d="M346.6,117.8c-1.9,0-3.8-1.9-3.8-3.7c0-2.1,1.7-3.8,3.9-3.8c2,0,3.7,1.8,3.7,3.8
				C350.4,116,348.6,117.8,346.6,117.8"/>
			<path class="st4" d="M301.7,113.4c0,2.2-1.6,3.9-3.8,3.9c-1.9,0-3.6-1.9-3.5-3.9c0-2.1,1.7-3.7,3.7-3.7
				C300.2,109.6,301.7,111.2,301.7,113.4"/>
			<path class="st4" d="M325.6,138.3c0.1,1.9-1.7,3.8-3.6,3.9c-1.8,0.1-3.7-1.8-3.8-3.7c-0.1-1.9,1.7-3.8,3.6-3.9
				C323.6,134.5,325.5,136.3,325.6,138.3"/>
			<path class="st4" d="M322.8,85.1c2,0,3.5,1.5,3.4,3.6c0,2.1-1.7,3.7-3.8,3.6c-1.9-0.1-3.6-1.9-3.5-3.7
				C319,86.6,320.7,85.1,322.8,85.1"/>
		</g>
	</g>
</g>
<line class="st6" x1="246.5" y1="198.6" x2="1294.3" y2="196.7"/>
<text transform="matrix(1 0 0 1 633.582 274.6592)" class="st7 st8">EST. 1972</text>
<circle class="st9" cx="322" cy="113" r="37.4"/>
</svg>
