<svg xmlns="http://www.w3.org/2000/svg" xmlns:xlink="http://www.w3.org/1999/xlink" viewBox="0 0 600 600"><defs><style>.cls-1{fill:url(#radial-gradient);}.cls-2{fill:url(#radial-gradient-2);}.cls-3,.cls-4{fill:none;stroke:#e8554e;stroke-linecap:round;stroke-linejoin:round;}.cls-3{stroke-width:9.42px;}.cls-4{stroke-width:11px;}</style><radialGradient id="radial-gradient" cx="276.28" cy="282.55" r="218.05" gradientTransform="matrix(0.96, 0.29, -0.29, 0.96, 95.98, -78.12)" gradientUnits="userSpaceOnUse"><stop offset="0" stop-color="#e8554e"/><stop offset="1" stop-color="#fff"/></radialGradient><radialGradient id="radial-gradient-2" cx="277.4" cy="282.63" fx="303.01739142190934" r="255.21" gradientTransform="matrix(0.96, 0.29, -0.29, 0.96, 95.98, -78.12)" gradientUnits="userSpaceOnUse"><stop offset="0" stop-color="#fff"/><stop offset="1" stop-color="#e8554e"/></radialGradient></defs><title>ComFest PWA Icons</title><g id="Purpose"><g id="Keeper"><polygon class="cls-1" points="296.46 397.74 158.51 469.68 185.32 316.43 74.27 207.46 228.31 185.6 297.63 46.32 366.02 186.06 519.91 208.95 408.14 317.17 433.92 470.6 296.46 397.74"/><path d="M297.59,58.75l64.76,132.33,145.73,21.67L402.23,315.23l24.42,145.29-130.17-69L165.84,459.65l25.39-145.12L86.08,211.34,232,190.64,297.59,58.75m.08-24.86-9.93,20L224.68,180.56,84.53,200.45l-22.06,3.13,15.91,15.61,101,99.14L155,457.76l-3.84,21.95,19.76-10.31L296.44,404,421.5,470.24l19.69,10.44-3.69-22L414,319.11l101.69-98.46,16-15.5-22.05-3.28-140-20.82L307.47,53.91l-9.8-20Z"/><polygon class="cls-2" points="426.65 460.52 296.52 376.08 165.84 459.65 207.46 310.92 86.08 211.34 241.91 206.09 297.59 58.74 352.26 206.46 508.07 212.75 386 311.52 426.65 460.52"/></g><line class="cls-3" x1="261.18" y1="481" x2="236.18" y2="559.5"/><line class="cls-4" x1="295.18" y1="448" x2="295.18" y2="573"/><line class="cls-3" x1="329.18" y1="481.37" x2="359.18" y2="555.5"/><line class="cls-3" x1="79.17" y1="100.31" x2="164.18" y2="156.5"/><line class="cls-4" x1="95.37" y1="41.04" x2="179.18" y2="133.5"/><line class="cls-3" x1="164.18" y1="25.5" x2="204.26" y2="111.22"/><line class="cls-3" x1="108.1" y1="313.79" x2="20.18" y2="317.5"/><line class="cls-4" x1="121.18" y1="345.5" x2="9.18" y2="383.5"/><line class="cls-3" x1="129.74" y1="378.26" x2="51.18" y2="429.5"/><line class="cls-3" x1="500.27" y1="100.31" x2="415.26" y2="156.5"/><line class="cls-4" x1="484.07" y1="41.04" x2="400.26" y2="133.5"/><line class="cls-3" x1="415.26" y1="25.5" x2="375.18" y2="111.22"/><line class="cls-3" x1="471.34" y1="313.79" x2="559.26" y2="317.5"/><line class="cls-4" x1="458.26" y1="345.5" x2="570.26" y2="383.5"/><line class="cls-3" x1="449.7" y1="378.26" x2="528.26" y2="429.5"/></g></svg>