<svg xmlns="http://www.w3.org/2000/svg" xmlns:xlink="http://www.w3.org/1999/xlink" viewBox="0 0 600 600"><defs><style>.cls-1,.cls-2,.cls-3{stroke:#000;}.cls-1,.cls-2,.cls-3,.cls-7,.cls-8{stroke-linecap:round;stroke-linejoin:round;stroke-width:11px;}.cls-1{fill:url(#ComFest_Icon_Gradient);}.cls-2{fill:url(#linear-gradient);}.cls-3{fill:url(#linear-gradient-2);}.cls-4{fill:#e8554e;stroke-miterlimit:10;stroke-width:7.62px;}.cls-4,.cls-7,.cls-8{stroke:#cc3232;}.cls-5{fill:url(#radial-gradient);}.cls-6{fill:#cc3232;}.cls-7,.cls-8{fill:none;}.cls-8{stroke-dasharray:11.81 35.42;}</style><linearGradient id="ComFest_Icon_Gradient" x1="-38.55" y1="387.77" x2="259.04" y2="215.96" gradientUnits="userSpaceOnUse"><stop offset="0" stop-color="#fff"/><stop offset="0.37" stop-color="#fffefe" stop-opacity="0.99"/><stop offset="0.51" stop-color="#fef9f9" stop-opacity="0.97"/><stop offset="0.6" stop-color="#fdf1f1" stop-opacity="0.92"/><stop offset="0.68" stop-color="#fce6e5" stop-opacity="0.85"/><stop offset="0.75" stop-color="#fad7d6" stop-opacity="0.77"/><stop offset="0.8" stop-color="#f7c5c3" stop-opacity="0.66"/><stop offset="0.86" stop-color="#f4b0ac" stop-opacity="0.53"/><stop offset="0.91" stop-color="#f19692" stop-opacity="0.39"/><stop offset="0.95" stop-color="#ed7a74" stop-opacity="0.22"/><stop offset="0.99" stop-color="#e95b54" stop-opacity="0.04"/><stop offset="1" stop-color="#e8554e" stop-opacity="0"/></linearGradient><linearGradient id="linear-gradient" x1="422.21" y1="385.65" x2="120.29" y2="211.35" xlink:href="#ComFest_Icon_Gradient"/><linearGradient id="linear-gradient-2" x1="283.28" y1="380.71" x2="581.26" y2="208.68" xlink:href="#ComFest_Icon_Gradient"/><radialGradient id="radial-gradient" cx="492.5" cy="296.5" r="48.5" gradientUnits="userSpaceOnUse"><stop offset="0" stop-color="#fff"/><stop offset="0.37" stop-color="#fff" stop-opacity="0.99"/><stop offset="0.51" stop-color="#fff" stop-opacity="0.97"/><stop offset="0.6" stop-color="#fff" stop-opacity="0.92"/><stop offset="0.68" stop-color="#fff" stop-opacity="0.85"/><stop offset="0.75" stop-color="#fff" stop-opacity="0.77"/><stop offset="0.8" stop-color="#fff" stop-opacity="0.66"/><stop offset="0.86" stop-color="#fff" stop-opacity="0.53"/><stop offset="0.91" stop-color="#fff" stop-opacity="0.39"/><stop offset="0.95" stop-color="#fff" stop-opacity="0.22"/><stop offset="0.99" stop-color="#fff" stop-opacity="0.04"/><stop offset="1" stop-color="#fff" stop-opacity="0"/></radialGradient></defs><title>ComFest PWA Icons</title><g id="Map"><path class="cls-1" d="M188.33,539.5,37.13,506.68A18.57,18.57,0,0,1,22.5,488.53v-408A18.56,18.56,0,0,1,45,62.39L188.33,93.5Z"/><polygon class="cls-2" points="188.33 539.5 354.17 503.5 354.17 57.5 188.33 93.5 188.33 539.5"/><path class="cls-3" d="M520,179.5V107.56a18.56,18.56,0,0,0-14.73-18.17L354.17,57.5v446L497.6,533.77A18.56,18.56,0,0,0,520,515.61V483.5"/><path class="cls-4" d="M586,309.17c0,79.36-93.75,174.72-93.75,174.72S398.5,388.53,398.5,309.17s42-112.67,93.75-112.67S586,229.81,586,309.17Z"/><circle class="cls-5" cx="492.5" cy="296.5" r="48.5"/><path class="cls-6" d="M492.5,251A45.5,45.5,0,1,1,447,296.5,45.55,45.55,0,0,1,492.5,251m0-6A51.5,51.5,0,1,0,544,296.5,51.5,51.5,0,0,0,492.5,245Z"/><line class="cls-7" x1="63" y1="128" x2="97" y2="166"/><line class="cls-7" x1="97" y1="128" x2="63" y2="166"/><path class="cls-7" d="M88.5,193.5q-.51,3-1,5.92"/><path class="cls-8" d="M83,234.54C70.86,356.92,103.4,445.8,155.5,462.5c41.55,13.32,77.44-16.1,90-57,12.67-41.27-36.72-62.31-43-133-4.6-51.83,15.42-114.14,62-145,30.93-20.49,47.53-52.23,116-18,34,17-17.72,139.4-22,149-58,130-38,180.8-4,213,14.61,13.82,39.4,5.25,58.8.62"/><path class="cls-7" d="M430.79,469.83a13.14,13.14,0,0,1,5.71,1.67"/></g></svg>