<svg xmlns="http://www.w3.org/2000/svg" xmlns:xlink="http://www.w3.org/1999/xlink" viewBox="0 0 600 600"><defs><style>.cls-1{fill:#fff;}.cls-1,.cls-4{stroke:#000;}.cls-1,.cls-4,.cls-5,.cls-6{stroke-miterlimit:10;}.cls-1,.cls-4,.cls-5{stroke-width:7.87px;}.cls-2{fill:url(#radial-gradient);}.cls-3{fill:#e8554e;}.cls-4,.cls-5,.cls-6{fill:none;stroke-linecap:round;}.cls-5,.cls-6{stroke:#e8554e;}.cls-6{stroke-width:11px;}</style><radialGradient id="radial-gradient" cx="298.34" cy="318.24" fy="287.80816064494604" r="123.28" gradientTransform="translate(0 -81.85) scale(1 1.26)" gradientUnits="userSpaceOnUse"><stop offset="0.03" stop-color="#e8554e"/><stop offset="0.18" stop-color="#ed7771"/><stop offset="0.46" stop-color="#f4b1ae"/><stop offset="0.7" stop-color="#fadbda"/><stop offset="0.89" stop-color="#fef5f5"/><stop offset="1" stop-color="#fff"/></radialGradient></defs><title>ComFest PWA Icons</title><g id="Tips_Info" data-name="Tips &amp; Info"><path class="cls-1" d="M355.86,551.57s0,15.74-56.86,15.74c-60.51,0-59-15.74-59-15.74A8.61,8.61,0,0,1,231.4,543l-4.29-69.38A8.62,8.62,0,0,1,235.7,465s-4.3,16.83,63.28,16.83c70,0,61.17-14.68,61.17-14.68a8.61,8.61,0,0,1,8.59,8.58L364.45,543A8.61,8.61,0,0,1,355.86,551.57Z"/><path class="cls-2" d="M297.51,472.6c-21,0-40.64-3-55.35-8.35-12.89-4.72-20.58-10.9-20.58-16.55a6.59,6.59,0,0,1,.43-2.34l.36-1-.09-1c-.47-5.58-.38-11.7-.29-17.61.15-9.49.3-19.3-1.78-28.07-2.76-11.68-7.89-23.44-12.85-34.82-4.8-11-9.76-22.38-12.34-33.26a3.28,3.28,0,0,0-.09-.37,69.12,69.12,0,0,0-4.63-12.11c-.48-1.05-1-2.09-1.42-3.15A114.43,114.43,0,0,1,185,297.76c-.13-1.57-.22-3.16-.32-4.74a105.42,105.42,0,0,0-1.21-12.11c0-.7,0-1.39,0-2.09a114.94,114.94,0,0,1,229.88,0,113.56,113.56,0,0,1-12.87,52.88l-.22.43-.13.47c-2.7,9.93-7.21,20.28-11.57,30.28-5,11.37-10.09,23.13-12.85,34.81-2.07,8.77-1.92,18.58-1.78,28.06a159.39,159.39,0,0,1-.51,19.82l-.07.61.09.62a5.46,5.46,0,0,1,.07.9c0,5.65-7.69,11.83-20.58,16.55C338.15,469.63,318.49,472.6,297.51,472.6Z"/><path class="cls-3" d="M298.34,168.45a110.41,110.41,0,0,1,98,161.15l-.45.86-.26,1c-2.61,9.6-6.85,19.34-11.35,29.65-5,11.55-10.25,23.51-13.1,35.58-2.21,9.33-2.05,19.42-1.91,29.18a149.58,149.58,0,0,1-.48,19.22l-.14,1.24.19,1.22a1.23,1.23,0,0,1,0,.2c0,2.34-4.69,7.54-17.59,12.26C337.07,465.17,318,468,297.51,468S258,465.17,243.73,460c-12.9-4.72-17.59-9.92-17.59-12.26a2,2,0,0,1,.15-.74L227,445l-.17-2.05c-.45-5.36-.37-11.09-.27-17.16.15-9.77.3-19.87-1.91-29.19-2.85-12.08-8.07-24-13.11-35.59-4.92-11.29-9.57-22-12.06-32.42,0-.16-.08-.35-.14-.57a73.29,73.29,0,0,0-4.89-12.83c-.44-1-.87-1.91-1.29-2.86a108.52,108.52,0,0,1-3.67-15.17c-.11-1.45-.2-2.91-.29-4.45A113.14,113.14,0,0,0,188,280.47c0-.5,0-1,0-1.65A110.38,110.38,0,0,1,298.34,168.45m0-9.13a119.5,119.5,0,0,0-119.5,119.5c0,.86,0,1.71,0,2.56,1,5.52,1.09,11.28,1.56,16.94a118,118,0,0,0,4.18,17.28c2.14,4.91,4.66,9.71,5.91,14.83a.86.86,0,0,1,.06.23c5.34,22.55,19.85,45.52,25.19,68.08,3.22,13.6.72,30.33,2,45a11,11,0,0,0-.73,3.94c0,16.28,36,29.46,80.5,29.46S378,464,378,447.7a9.63,9.63,0,0,0-.13-1.61c1.76-15.23-1.18-33,2.2-47.35,5.09-21.51,18.52-43.39,24.38-64.94A119.53,119.53,0,0,0,298.34,159.32Z"/><path class="cls-4" d="M229.05,509.11s.83,16.6,68.88,16.6c67.21,0,68-14.94,68-14.94"/><line class="cls-5" x1="279.84" y1="240.68" x2="298.75" y2="469.28"/><line class="cls-5" x1="318.84" y1="250.68" x2="300.41" y2="469.28"/><line class="cls-6" x1="297.34" y1="33.18" x2="297.34" y2="112.18"/><line class="cls-6" x1="151.18" y1="87.33" x2="193.5" y2="154.03"/><line class="cls-6" x1="111.27" y1="165.2" x2="145.57" y2="185.01"/><line class="cls-6" x1="228.71" y1="74.14" x2="240.14" y2="112.07"/><line class="cls-6" x1="93.79" y1="330.72" x2="133.05" y2="325.5"/><line class="cls-6" x1="63.14" y1="235.85" x2="141.54" y2="245.51"/><line class="cls-6" x1="103.5" y1="411.01" x2="179.18" y2="388.35"/><line class="cls-6" x1="455.1" y1="87.33" x2="412.77" y2="154.03"/><line class="cls-6" x1="495" y1="165.2" x2="460.7" y2="185.01"/><line class="cls-6" x1="377.57" y1="74.14" x2="366.14" y2="112.07"/><line class="cls-6" x1="512.48" y1="330.72" x2="473.22" y2="325.5"/><line class="cls-6" x1="543.14" y1="235.85" x2="464.73" y2="245.51"/><line class="cls-6" x1="502.77" y1="411.01" x2="427.09" y2="388.35"/></g></svg>