<svg xmlns="http://www.w3.org/2000/svg" xmlns:xlink="http://www.w3.org/1999/xlink" viewBox="0 0 600 600"><defs><style>.cls-1{stroke:#000;stroke-linecap:round;stroke-miterlimit:10;stroke-width:9.86px;fill:url(#radial-gradient);}.cls-2{fill:url(#radial-gradient-2);}.cls-3{fill:#e8554e;}</style><radialGradient id="radial-gradient" cx="220.33" cy="394.35" r="191.55" gradientUnits="userSpaceOnUse"><stop offset="0" stop-color="#fff"/><stop offset="1"/></radialGradient><radialGradient id="radial-gradient-2" cx="435.77" cy="151.91" r="143.01" gradientUnits="userSpaceOnUse"><stop offset="0" stop-color="#fff"/><stop offset="0.16" stop-color="#fefbfb"/><stop offset="0.31" stop-color="#fdf0ef"/><stop offset="0.45" stop-color="#fadddc"/><stop offset="0.6" stop-color="#f7c3c1"/><stop offset="0.75" stop-color="#f2a19d"/><stop offset="0.89" stop-color="#ed7873"/><stop offset="1" stop-color="#e8554e"/></radialGradient></defs><title>ComFest PWA Icons</title><g id="Settings"><path class="cls-1" d="M384.84,407.14l26.7,7.77L407,440.42l-27.73-1.83a163.81,163.81,0,0,1-8.77,24.05L393,479.07,380,501.5l-25.45-11.21a166.7,166.7,0,0,1-16.45,19.6L353.59,533l-19.85,16.65-20.05-19.22a165.51,165.51,0,0,1-22.16,12.88l6.6,26.9-24.35,8.86-12.21-24.79a165.82,165.82,0,0,1-25.3,4.48l-3,27.45H207.37l-3-27.38a164.76,164.76,0,0,1-25.4-4.37l-12.12,24.61-24.35-8.86,6.53-26.57a164.52,164.52,0,0,1-22.42-12.89l-19.72,18.9L87.07,533l15.15-22.64a166.72,166.72,0,0,1-16.73-19.82L60.63,501.5l-13-22.43,21.84-16a163.35,163.35,0,0,1-8.95-24.43l-27,1.78-4.5-25.51L55,407.36q-.52-6.54-.53-13.21,0-6.48.5-12.83l-25.9-7.54,4.5-25.51L60.47,350a163.58,163.58,0,0,1,8.91-24.52l-21.7-15.9,13-22.43,24.65,10.86a165,165,0,0,1,16.78-19.95l-15-22.42L106.91,239l19.49,18.68a163.6,163.6,0,0,1,22.56-13l-6.44-26.22,24.35-8.86,11.95,24.27a165.11,165.11,0,0,1,25.61-4.43l2.94-27h25.91l2.95,27.06a165.37,165.37,0,0,1,25.51,4.53l12-24.45,24.35,8.86L291.61,245a165,165,0,0,1,22.32,13l19.81-19,19.85,16.65-15.31,22.89a168.53,168.53,0,0,1,16.5,19.74L380,287.19l13,22.43L370.68,326a163.36,163.36,0,0,1,8.74,24.15L407,348.27l4.5,25.51-26.67,7.76c.33,4.17.48,8.37.48,12.61S385.18,402.85,384.84,407.14ZM219.25,314.7A80.29,80.29,0,1,0,299.54,395,80.29,80.29,0,0,0,219.25,314.7Z"/><path class="cls-2" d="M429.69,294.92a1.1,1.1,0,0,1-1-.76L420,267.24a1,1,0,0,1,0-.73l1-2.42-2.59-.39a112.52,112.52,0,0,1-20.53-5.12l-2.46-.87-.27,2.6a1,1,0,0,1-.31.6l-20.34,19.68a1.07,1.07,0,0,1-.75.3,1,1,0,0,1-.53-.14l-14.14-8.16a1.09,1.09,0,0,1-.53-1.15l5.76-27.4a1.15,1.15,0,0,1,.43-.65l2-1.61-2-1.62a114.45,114.45,0,0,1-15.24-14.72l-1.65-1.92-1.54,2a1,1,0,0,1-.58.39l-27.46,6.87a1.07,1.07,0,0,1-.25,0,1.05,1.05,0,0,1-.93-.53L309,218.15a1.07,1.07,0,0,1,.11-1.25l18.68-20.85a1.06,1.06,0,0,1,.65-.36l2.54-.39-.94-2.4a112.43,112.43,0,0,1-5.81-20.34l-.46-2.46-2.32.92a1.1,1.1,0,0,1-.4.08,1.12,1.12,0,0,1-.31,0l-27.17-7.77a1.06,1.06,0,0,1-.78-1V145.93a1.07,1.07,0,0,1,.73-1l26.6-8.72a1.21,1.21,0,0,1,.34-.05,1.07,1.07,0,0,1,.39.07l2.38.89.38-2.52a111.39,111.39,0,0,1,5.11-20.52l.82-2.34-2.45-.38a1,1,0,0,1-.56-.29L306.83,90.69a1.09,1.09,0,0,1-.16-1.28l8.16-14.14a1.07,1.07,0,0,1,.93-.55.91.91,0,0,1,.23,0l27.38,5.74a1.08,1.08,0,0,1,.61.37l1.61,1.92,1.57-2a115.81,115.81,0,0,1,14.73-15.21L363.8,64l-2-1.55a1,1,0,0,1-.31-.53l-6.87-27.42a1.07,1.07,0,0,1,.5-1.18l14.15-8.19a1.08,1.08,0,0,1,.53-.14,1.11,1.11,0,0,1,.73.28l20.84,18.68a1,1,0,0,1,.34.6l.45,2.46,2.32-.91a110.44,110.44,0,0,1,20.34-5.79l2.44-.44-.89-2.32a1,1,0,0,1,0-.64l7.77-27.19a1.09,1.09,0,0,1,1.05-.79H441.5a1.07,1.07,0,0,1,1,.75l8.71,26.59a1.12,1.12,0,0,1,0,.72l-.85,2.36,2.48.37a112.2,112.2,0,0,1,20.53,5.15l2.4.85.33-2.53a1.1,1.1,0,0,1,.33-.6l20.24-19.33a1,1,0,0,1,.74-.3,1.13,1.13,0,0,1,.51.12l14.39,7.73a1.05,1.05,0,0,1,.54,1.17l-6,27.64a.93.93,0,0,1-.3.54l-2,1.6,2,1.62A115.82,115.82,0,0,1,521.78,78.1l1.67,2L525,78a1,1,0,0,1,.59-.4L552.78,71a.78.78,0,0,1,.26,0,1.1,1.1,0,0,1,.92.52l8.6,13.88a1.06,1.06,0,0,1-.12,1.27l-19,21a.92.92,0,0,1-.6.32l-2.52.41.93,2.38A110.35,110.35,0,0,1,547,131.06l.48,2.6,2.4-1.1a1.17,1.17,0,0,1,.44-.1,1,1,0,0,1,.3,0l26.85,7.86a1.12,1.12,0,0,1,.78,1l.51,16.3a1.07,1.07,0,0,1-.74,1.05l-26.95,8.65a1,1,0,0,1-.33.05.92.92,0,0,1-.38-.07l-2.41-1-.39,2.56a110,110,0,0,1-5.16,20.53l-.88,2.48,2.62.26a1.13,1.13,0,0,1,.71.34l19.32,20.24a1.08,1.08,0,0,1,.17,1.25l-7.71,14.38a1.08,1.08,0,0,1-1,.58.85.85,0,0,1-.23,0l-27.63-6a1.07,1.07,0,0,1-.62-.39l-1.6-2.09-1.64,2a115.47,115.47,0,0,1-14.77,15.24l-2.07,1.78,2.28,1.5a1,1,0,0,1,.41.6l6.63,27.21a1.07,1.07,0,0,1-.47,1.15l-13.89,8.62a1.06,1.06,0,0,1-1.28-.12l-20.95-19a1.06,1.06,0,0,1-.34-.64l-.34-2.61-2.45,1a111.2,111.2,0,0,1-20.39,5.8l-2.63.49,1.14,2.41a1.06,1.06,0,0,1,.06.78l-7.86,26.87a1.08,1.08,0,0,1-1,.78ZM434.87,99.5a52.87,52.87,0,0,0,.83,105.74h.86a52.88,52.88,0,0,0,52-53.71,53.09,53.09,0,0,0-52.85-52Z"/><path class="cls-3" d="M425.92,11h14.87l8.39,25.62L447.6,41l4.95.75a109.07,109.07,0,0,1,20.15,5.05l4.81,1.71.6-4.67L497.6,25.21l13.1,7L505,58.79l-3.71,2.92,4,3.24a113.58,113.58,0,0,1,14.94,14.49l3.35,3.89,2.87-3.82,26.15-6.36,7.83,12.63-18.26,20.14-4.68.74,1.86,4.77a108.57,108.57,0,0,1,5.66,20l1,5.2,4.48-2,25.81,7.56.46,14.86-25.9,8.31-4.47-1.76-.77,5.11a108.82,108.82,0,0,1-5.07,20.14l-1.77,5,4.9.48,18.59,19.48-7,13.11-26.56-5.76-3-3.89-3.3,4.11a113.19,113.19,0,0,1-14.5,15l-4.14,3.56,4.2,2.76,6.36,26.11-12.63,7.84-20.13-18.26-.65-4.84L476,255.36a108.89,108.89,0,0,1-20,5.7l-5.25,1,2.11,4.51-7.56,25.85-14.87.46L422.11,267l1.83-4.51-5.18-.78a109.41,109.41,0,0,1-20.15-5l-4.92-1.73-.5,4.79-19.54,18.9-12.88-7.43,5.53-26.34,3.84-3-4.05-3.25a112.79,112.79,0,0,1-15-14.45l-3.3-3.84L344.93,224l-26.37,6.6-7.45-12.88,18-20.06,4.73-.74-1.87-4.78a110.79,110.79,0,0,1-5.71-20l-.91-4.91L321,169l-26.15-7.49V146.63l25.58-8.39,4.46,1.67.75-5a109.79,109.79,0,0,1,5-20.15l1.64-4.67-4.53-.71L308.83,89.8l7.43-12.89,26.36,5.53,3,3.57,3.14-3.89a113,113,0,0,1,14.46-15l3.82-3.28-3.64-2.83-6.6-26.37,12.88-7.44,20.06,18,.84,4.59L395.25,48a107.78,107.78,0,0,1,19.95-5.68l4.88-.89-1.64-4.29L425.92,11M435.7,207.3h.89a54.94,54.94,0,0,0-.86-109.87h-.89a54.93,54.93,0,0,0,.86,109.86M425.18,6.84a3.18,3.18,0,0,0-3,2.29l-7.76,27.18a3,3,0,0,0,.07,1.95,112.43,112.43,0,0,0-20.72,5.89,3.05,3.05,0,0,0-1-1.77L371.91,23.7a3.17,3.17,0,0,0-2.1-.8,3.1,3.1,0,0,0-1.56.42L354.11,31.5A3.11,3.11,0,0,0,352.64,35L359.5,62.4a3,3,0,0,0,1,1.65,117.83,117.83,0,0,0-15,15.48,3.14,3.14,0,0,0-1.76-1l-27.39-5.75a3.59,3.59,0,0,0-.65-.07A3.14,3.14,0,0,0,313,74.24l-8.15,14.14a3.13,3.13,0,0,0,.46,3.74L325,112.46a3,3,0,0,0,1.73.9,113.81,113.81,0,0,0-5.2,20.91,3.21,3.21,0,0,0-1.11-.2,3.38,3.38,0,0,0-1,.15l-26.59,8.72a3.13,3.13,0,0,0-2.16,3v16.32a3.11,3.11,0,0,0,2.27,3L320.17,173a3.24,3.24,0,0,0,.86.12,3.18,3.18,0,0,0,1.15-.22,115.12,115.12,0,0,0,5.92,20.72,3.06,3.06,0,0,0-1.86,1l-18.68,20.85a3.12,3.12,0,0,0-.37,3.66l8.17,14.13a3.12,3.12,0,0,0,2.72,1.57,3.2,3.2,0,0,0,.75-.09l27.44-6.86a3.12,3.12,0,0,0,1.73-1.14,116.81,116.81,0,0,0,15.51,15,3.17,3.17,0,0,0-1.16,1.85L356.59,271a3.12,3.12,0,0,0,1.51,3.35l14.14,8.17a3.09,3.09,0,0,0,1.56.41,3.14,3.14,0,0,0,2.18-.88l20.33-19.67a3,3,0,0,0,.93-1.88,113.24,113.24,0,0,0,20.91,5.22,3,3,0,0,0-.07,2.13l8.62,26.93a3.18,3.18,0,0,0,3,2.18h.11l16.31-.51a3.17,3.17,0,0,0,2.92-2.26l7.85-26.87a3.1,3.1,0,0,0-.17-2.23,113,113,0,0,0,20.77-5.91,3.13,3.13,0,0,0,1,1.89l20.95,19a3.13,3.13,0,0,0,2.11.82,3.09,3.09,0,0,0,1.65-.47l13.87-8.61a3.14,3.14,0,0,0,1.4-3.4l-6.62-27.2a3.07,3.07,0,0,0-1.28-1.84,117.11,117.11,0,0,0,15-15.51,3.13,3.13,0,0,0,1.82,1.15L555,231a3,3,0,0,0,.66.07,3.16,3.16,0,0,0,2.77-1.66l7.71-14.39a3.13,3.13,0,0,0-.49-3.64l-19.32-20.24a3.21,3.21,0,0,0-2-1,111.75,111.75,0,0,0,5.26-20.91,3.08,3.08,0,0,0,1.14.21,3,3,0,0,0,1-.15l26.94-8.64a3.11,3.11,0,0,0,2.18-3.09l-.51-16.31a3.15,3.15,0,0,0-2.26-2.91l-26.86-7.87a2.91,2.91,0,0,0-.87-.13,3,3,0,0,0-1.29.29,112.59,112.59,0,0,0-5.88-20.76,3,3,0,0,0,1.79-1L564,88a3.15,3.15,0,0,0,.35-3.76l-8.6-13.87A3.13,3.13,0,0,0,552.29,69l-27.18,6.62a3.07,3.07,0,0,0-1.77,1.17,117.59,117.59,0,0,0-15.49-15,2.94,2.94,0,0,0,1-1.72l6-27.63A3.15,3.15,0,0,0,513.31,29l-14.4-7.72a3.13,3.13,0,0,0-3.64.5L475,41.07a3.07,3.07,0,0,0-.94,1.83,112.88,112.88,0,0,0-20.91-5.24,3.18,3.18,0,0,0,0-2.07L444.49,9a3.13,3.13,0,0,0-3-2.16H425.18ZM435.7,203.18a50.81,50.81,0,0,1-.8-101.62h.83a50.82,50.82,0,0,1,.79,101.63Z"/></g></svg>