<svg xmlns="http://www.w3.org/2000/svg" xmlns:xlink="http://www.w3.org/1999/xlink" viewBox="0 0 600 600"><defs><style>.cls-1,.cls-2,.cls-5{stroke:#000;stroke-linecap:round;stroke-linejoin:round;}.cls-1,.cls-2{stroke-width:10.34px;}.cls-1{fill:url(#linear-gradient);}.cls-2{fill:url(#linear-gradient-2);}.cls-3{fill:#cc3232;fill-rule:evenodd;}.cls-4,.cls-5{fill:none;}.cls-4{stroke:#cc3232;stroke-miterlimit:10;stroke-width:24.95px;}.cls-5{stroke-width:11px;opacity:0.34;}</style><linearGradient id="linear-gradient" x1="300.49" y1="310.5" x2="572.83" y2="310.5" gradientUnits="userSpaceOnUse"><stop offset="0" stop-color="#fff"/><stop offset="0.4" stop-color="#fffdfd"/><stop offset="0.55" stop-color="#fef7f6"/><stop offset="0.65" stop-color="#fcebeb"/><stop offset="0.73" stop-color="#fadbda"/><stop offset="0.8" stop-color="#f7c6c4"/><stop offset="0.87" stop-color="#f4aca8"/><stop offset="0.92" stop-color="#f08d88"/><stop offset="0.97" stop-color="#eb6a64"/><stop offset="1" stop-color="#e8554e"/></linearGradient><linearGradient id="linear-gradient-2" x1="573.49" y1="310.5" x2="845.83" y2="310.5" gradientTransform="matrix(-1, 0, 0, 1, 873.32, 0)" xlink:href="#linear-gradient"/></defs><title>ComFest PWA Icons</title><g id="Program"><path class="cls-1" d="M300.49,523.35s1-32,59.16-32c0,0,124.62,8.16,166.16,8.16,6.4,0,25.61-2,25.61-2a21.42,21.42,0,0,0,21.41-21.41V125.18a21.41,21.41,0,0,0-21.41-21.41s-21.39,2-28.52,2c-40.82,0-163.25-8.16-163.25-8.16-58.14,0-59.16,32-59.16,32Z"/><path class="cls-2" d="M299.83,523.35s-1-32-59.16-32c0,0-124.62,8.16-166.16,8.16-6.4,0-25.61-2-25.61-2a21.42,21.42,0,0,1-21.41-21.41V125.18A21.41,21.41,0,0,1,48.9,103.77s21.39,2,28.52,2c40.82,0,163.25-8.16,163.25-8.16,58.14,0,59.16,32,59.16,32Z"/><path class="cls-3" d="M289.33,261.1c-7.12-3.47-13.95-8-21.46-10.08-6.38-1.74-14.62-2.81-20.09-.16-6.46,3.13-8.81,11.08-5.32,18.95,1.16,2.62,2.28,5.27,3.18,8,2.07,6.32,4,12.68,6.36,20.27H226.71c-10.86-32.07-20-35.8-62.59-25.81-3.2-14.64,8.81-31.06,22.85-30.71a90.93,90.93,0,0,1,18.15,2.32c26.3,6.13,40.48-7.89,34.73-34.57-1.36-6.31-2.79-12.61-3.77-19-1.3-8.45,2.6-13.75,10.64-16.34,7.09-2.3,14.1-4.82,23.93-8.2-1.94,5.92-2.95,9.1-4,12.25-7.47,22,.58,40.74,21.58,50.88,1.89.91,4.17,3.35,4.28,5.2.46,8.14.2,16.32.2,24.48Z"/><path class="cls-3" d="M308.23,261.54c0-11-.25-18.83.17-26.67a8.86,8.86,0,0,1,3.65-5.87c30.56-20.22,31.39-22.05,24.69-58.07,22.1-2.93,33.62,9.45,29.05,30.34-2,9.27-4.35,19.29-2.83,28.35,2.42,14.41,14.38,20.5,28.49,17.17,3.15-.74,6.2-1.94,9.35-2.66,23.9-5.45,37.1,6.27,35.35,28.63-12.61-.52-25.48-3.24-37.4-.95-13.56,2.61-21.37,13.87-23.81,27.41-.82.44-1.15.77-1.46.75-7.4-.38-14.79-.8-22.18-1.21,2.09-7,3.52-14.24,6.42-20.85,4-9.2,6.31-18-1.5-26-8-8.26-16.66-6.3-25.65-1.21C324,254.42,316.89,257.37,308.23,261.54Z"/><path class="cls-3" d="M289.61,353.29c0,12.34.2,20.21-.17,28-.08,1.57-2.05,3.57-3.66,4.46C257,401.87,253.42,411,264,442.48c-19.83,2.86-32.94-10.09-29.38-29.12,1.19-6.35,3.48-12.59,3.89-19,1.18-18-7.84-26.95-25.78-26.4a32.75,32.75,0,0,0-7.47.88c-28.87,7.72-37.05,6.67-41.81-31.05,6.18,2.32,11.95,5,18,6.65,15.92,4.23,34.92-3.39,39.76-18.19,3.47-10.62,9.26-11.94,18.11-11,3.17.33,6.36.45,11.81.83-1.82,6.49-3.1,12.16-5.06,17.6-1.07,3-3.58,5.44-4.91,8.38-3.49,7.65-4.8,15.53,2.2,21.89,6.68,6.07,13.8,3.75,21.05.11S279.56,357.54,289.61,353.29Z"/><path class="cls-3" d="M347.33,318.08c3.78-.76,5.15-1.26,6.51-1.28,6.83-.08,13.65,0,20.2,0,6.66,28.52,26.92,38,58.36,26.72,3.79,20.27-10.31,34.65-29.72,30.42-6.64-1.45-13.32-3.29-20-3.58-13.95-.6-23.39,8-24.17,22a98,98,0,0,0,1.24,21.56c3.59,21.26-4.16,30.82-24.78,31.56.29-12.12,2.2-24.53.46-36.4-2.05-13.92-13-20.92-27-23.65V354.93c7,3.46,12.82,5.77,18.05,9,11.11,6.92,21.14,8.13,26.72,1.55,7.29-8.61,5.57-17.61.5-27.13C350.47,332.42,349.48,325.29,347.33,318.08Z"/><path class="cls-3" d="M299.31,289.23c10.41-.16,19.8,8.64,19.89,18.65.11,10.49-8.47,19.82-18.52,20.13-10.64.34-19-7.76-19.3-18.76S289,289.39,299.31,289.23Z"/><path class="cls-3" d="M411.87,326.72c-8.68,0-17.36-8.6-17.46-17.3-.11-9.73,8.07-17.52,18.21-17.33,9.37.17,17.22,8.29,16.92,17.5C429.25,318.52,420.79,326.72,411.87,326.72Z"/><path class="cls-3" d="M204.23,306.57c0,10.38-7.57,18.09-17.47,17.85-8.95-.22-16.45-8.56-16.23-18.05a17.33,17.33,0,0,1,17.17-17.22C197.16,289.12,204.24,296.58,204.23,306.57Z"/><path class="cls-3" d="M314.58,421.58c.29,8.88-7.88,17.71-16.77,18.1-8.28.36-17.32-8.43-17.74-17.27s7.8-17.72,16.78-18C305.57,404.14,314.28,412.58,314.58,421.58Z"/><path class="cls-3" d="M301.8,176c9.38.12,16,7.12,15.82,16.75-.18,9.87-7.72,17.11-17.39,16.7-8.58-.36-16.7-8.83-16.39-17.08C284.2,182.76,291.78,175.86,301.8,176Z"/><circle class="cls-4" cx="300.73" cy="306.79" r="162.15"/><line class="cls-5" x1="299.84" y1="130" x2="299.84" y2="523"/></g></svg>