<svg xmlns="http://www.w3.org/2000/svg" viewBox="0 0 600 600"><defs><style>.a{fill:#fff;}</style></defs><title>ComFest PWA Icons_Menu</title><path class="a" d="M129.1,260.8V507.1a1.4,1.4,0,0,0,1.4,1.4h321a1.4,1.4,0,0,0,1.4-1.4V260h.1L293.3,113.3a1.5,1.5,0,0,0-2,0L129.6,259.7A1.6,1.6,0,0,0,129.1,260.8ZM333.3,504.1H250.1a1.4,1.4,0,0,1-1.4-1.4V320.5a1.5,1.5,0,0,1,1.4-1.5h83.2a1.5,1.5,0,0,1,1.4,1.5V502.7A1.4,1.4,0,0,1,333.3,504.1Z"/><path class="a" d="M289.7,77.6l-98.5,91.7a1.4,1.4,0,0,1-2.4-1.1V126.6a1.5,1.5,0,0,0-1.5-1.4H150.5a1.4,1.4,0,0,0-1.4,1.4v81.1a1.6,1.6,0,0,1-.5,1.1L96.2,257.5a1.5,1.5,0,0,0,1,2.5h15.7l1.1-.4,177.1-160a1.4,1.4,0,0,1,1.9,0l177.2,160a1.3,1.3,0,0,0,1,.4h13a1.5,1.5,0,0,0,1-2.5L291.7,77.6A1.5,1.5,0,0,0,289.7,77.6Z"/></svg>