<svg xmlns="http://www.w3.org/2000/svg" xmlns:xlink="http://www.w3.org/1999/xlink" viewBox="0 0 600 600"><defs><style>.cls-1,.cls-3{stroke:#000;}.cls-1,.cls-2,.cls-3{stroke-miterlimit:10;stroke-width:11px;}.cls-1{fill:url(#linear-gradient);}.cls-2,.cls-3{fill:none;}.cls-2{stroke:#e8554e;}.cls-4{fill:#fff;}</style><linearGradient id="linear-gradient" x1="93.89" y1="260.39" x2="498.9" y2="26.56" gradientUnits="userSpaceOnUse"><stop offset="0" stop-color="#e8554e" stop-opacity="0"/><stop offset="0.01" stop-color="#e95b54" stop-opacity="0.04"/><stop offset="0.05" stop-color="#ed7a74" stop-opacity="0.22"/><stop offset="0.09" stop-color="#f19692" stop-opacity="0.39"/><stop offset="0.14" stop-color="#f4b0ac" stop-opacity="0.53"/><stop offset="0.2" stop-color="#f7c5c3" stop-opacity="0.66"/><stop offset="0.25" stop-color="#fad7d6" stop-opacity="0.77"/><stop offset="0.32" stop-color="#fce6e5" stop-opacity="0.85"/><stop offset="0.4" stop-color="#fdf1f1" stop-opacity="0.92"/><stop offset="0.49" stop-color="#fef9f9" stop-opacity="0.97"/><stop offset="0.63" stop-color="#fffefe" stop-opacity="0.99"/><stop offset="1" stop-color="#fff"/></linearGradient></defs><title>ComFest PWA Icons</title><g id="Website"><path class="cls-1" d="M75.85,83.18H520.62a19,19,0,0,1,19,19v91a1,1,0,0,1-1,1h-483a0,0,0,0,1,0,0V103.37A20.19,20.19,0,0,1,75.85,83.18Z"/><g id="Globe"><path class="cls-2" d="M539.16,282A198.56,198.56,0,0,0,239.44,515.68H521.65a17.51,17.51,0,0,0,17.51-17.51Z"/><path class="cls-2" d="M231.16,413.68s57,22,140,37c69.58,12.58,168,21,168,21"/><path class="cls-2" d="M467.16,250.68s-33,81-44,147c-9.93,59.59-13,118-13,118"/><path class="cls-2" d="M282.16,306.68s38.32,19.57,124,34c95,16,133,16,133,16"/><path class="cls-2" d="M458.66,249.18s-77.39-4.74-134,119c-43,94-10,148-10,148"/></g><g id="Browser"><rect class="cls-3" x="56.16" y="82.68" width="484" height="434" rx="19.6"/><line class="cls-3" x1="59.66" y1="194.18" x2="539.66" y2="194.18"/><circle class="cls-4" cx="119.16" cy="145.68" r="10"/><circle class="cls-4" cx="171.16" cy="145.68" r="10"/><circle class="cls-4" cx="225.16" cy="145.68" r="10"/><circle class="cls-3" cx="119.16" cy="145.68" r="11"/><circle class="cls-3" cx="171.16" cy="145.68" r="11"/><circle class="cls-3" cx="225.16" cy="145.68" r="11"/></g></g></svg>