<svg xmlns="http://www.w3.org/2000/svg" xmlns:xlink="http://www.w3.org/1999/xlink" viewBox="0 0 600 600"><defs><style>.cls-1{fill:url(#linear-gradient);}.cls-2,.cls-7,.cls-8{fill:none;}.cls-2,.cls-4,.cls-8{stroke:#000;stroke-linecap:round;stroke-linejoin:round;}.cls-2,.cls-4{stroke-width:11.68px;}.cls-3,.cls-5{fill:#fff;}.cls-3{stroke:#fff;stroke-width:11.29px;}.cls-3,.cls-7,.cls-9{stroke-miterlimit:10;}.cls-4{fill:url(#linear-gradient-2);}.cls-6{fill:#cc3232;fill-rule:evenodd;}.cls-7,.cls-9{stroke:#cc3232;}.cls-7{stroke-width:9.38px;}.cls-8,.cls-9{stroke-width:11px;}.cls-9{fill:#f9f9f9;}</style><linearGradient id="linear-gradient" x1="244.57" y1="155.99" x2="495.4" y2="155.99" gradientTransform="matrix(0.96, 0.02, -0.01, 1, -24.03, -3.25)" gradientUnits="userSpaceOnUse"><stop offset="0" stop-color="#fff"/><stop offset="0.39" stop-color="#fffdfd"/><stop offset="0.57" stop-color="#fef6f6"/><stop offset="0.69" stop-color="#fceae9"/><stop offset="0.8" stop-color="#fad8d7"/><stop offset="0.9" stop-color="#f7c2c0"/><stop offset="0.98" stop-color="#f3a7a4"/><stop offset="1" stop-color="#f2a09d"/></linearGradient><linearGradient id="linear-gradient-2" x1="59.52" y1="159.51" x2="385.24" y2="159.51" gradientUnits="userSpaceOnUse"><stop offset="0" stop-color="#f2a09d"/><stop offset="0.02" stop-color="#f3a5a2"/><stop offset="0.1" stop-color="#f6c1bf"/><stop offset="0.2" stop-color="#fad8d6"/><stop offset="0.31" stop-color="#fce9e9"/><stop offset="0.45" stop-color="#fef6f5"/><stop offset="0.62" stop-color="#fffdfd"/><stop offset="1" stop-color="#fff"/></linearGradient></defs><title>ComFest PWA Icons</title><g id="Volunteer"><path class="cls-1" d="M225.62,245.53a2.73,2.73,0,0,1-2.53-2.7L208.68,101.11c2.76-3.42,20.21-19.34,109.05-25.63,19.4-1.38,36.73-2.07,51.5-2.07,40.71,0,54.72,5.17,64,8.59l1.94.71a3.6,3.6,0,0,1,2.21,3.17l9.74,137.48A8.08,8.08,0,0,1,445,229.5a6.9,6.9,0,0,1-5.07,2.28,7.24,7.24,0,0,1-1.46-.15,397.9,397.9,0,0,0-83.06-8.32c-8.87,0-17.94.27-27,.79-60.79,3.52-91.79,16.86-102,21.24A2.28,2.28,0,0,1,225.62,245.53Z"/><path d="M369.23,78.91c39.73,0,53.19,5,62.09,8.25l.65.24,9.65,136.35a2.6,2.6,0,0,1-.64,2,1.53,1.53,0,0,1-1.05.53l-.31,0a403.44,403.44,0,0,0-84.21-8.44c-9,0-18.15.27-27.27.8-14.8.85-58.94,3.41-99.94,20L214.42,103.17c2.13-1.72,7-4.83,17.22-8.27C251.1,88.34,280.2,83.65,318.11,81c19.28-1.36,36.47-2,51.12-2m0-11c-14,0-31,.6-51.89,2.08C208.07,77.73,203,100,203,100L217.6,243.22a8.23,8.23,0,0,0,8,7.81,7.68,7.68,0,0,0,3-.64c16.43-7.07,46.09-17.67,100.12-20.8,9.32-.54,18.2-.78,26.63-.78,36.94,0,65,4.57,81.91,8.2a13,13,0,0,0,2.61.27c7.21,0,13.22-6.41,12.66-14.31L442.86,85.49A9.08,9.08,0,0,0,437,77.54c-9.68-3.5-23.28-9.63-67.8-9.63Z"/><line class="cls-2" x1="158.12" y1="514.59" x2="59.8" y2="121.73"/><path class="cls-3" d="M404.44,521.05c.07.23.32.5.12.14-23.69-43.27-49.17-86.26-88.64-115.48-15-11.11-60.7,96.51-70.73,111.81-.48.73-1.84,3.56-1.5.64,8.48-74.06,4.75-111.25,21-200.17,7.38-40.29-110.42-14.41-141.3-7.81-2.38.51-2.4-4.52,1.22-5.84,39.73-14.56,103.71-37.85,139.43-47.74,42.26-11.71,88.25,2.37,118.45-19.39,27.45-19.77,55.2-56.55,82.42-81.58,2.56-2.36,5.2-3.31,4.08,1.44-14,59.5-77.25,96.67-102.77,146C351.56,331.47,393,485.27,404.44,521.05Z"/><path class="cls-4" d="M385,190.55a8,8,0,0,1-8.09,10c-19.33-.93-64.51,0-137.78,19.18C129.3,248.41,100.5,276.61,100.5,276.61l-41-156.74S87.36,91.93,198.14,63C313.75,32.75,346.87,44.76,346.87,44.76Z"/><path class="cls-3" d="M393.44,519.05c.07.23.32.5.12.14-23.69-43.27-49.17-86.26-88.64-115.48-15-11.11-60.7,96.51-70.73,111.81-.48.73-1.84,3.56-1.5.64,8.48-74.06,4.75-111.25,21-200.17,7.38-40.29-110.42-14.41-141.3-7.81-2.38.51-2.4-4.52,1.22-5.84,39.73-14.56,103.71-37.85,139.43-47.74,42.26-11.71,88.25,2.37,118.45-19.39,27.45-19.77,55.2-56.55,82.42-81.58,2.56-2.36,5.2-3.31,4.08,1.44-14,59.5-77.25,96.67-102.77,146C340.56,329.47,382,483.27,393.44,519.05Z"/><circle class="cls-5" cx="296.25" cy="183.43" r="72.75"/><path class="cls-6" d="M292,166.49c-2.68-1.3-5.25-3-8.07-3.79-2.4-.65-5.5-1.06-7.56-.06-2.43,1.18-3.31,4.17-2,7.13a31.37,31.37,0,0,1,1.19,3c.78,2.37,1.5,4.77,2.39,7.62h-9.51c-4.08-12.06-7.51-13.47-23.54-9.71-1.21-5.51,3.31-11.68,8.59-11.55a34.06,34.06,0,0,1,6.83.87c9.89,2.31,15.23-3,13.06-13-.51-2.38-1-4.75-1.41-7.14-.49-3.18,1-5.17,4-6.15,2.67-.86,5.3-1.81,9-3.08-.73,2.23-1.11,3.42-1.51,4.61-2.81,8.26.22,15.32,8.12,19.14a3,3,0,0,1,1.61,2c.17,3.06.07,6.14.07,9.21Z"/><path class="cls-6" d="M299.12,166.66c0-4.12-.1-7.08.06-10a3.36,3.36,0,0,1,1.38-2.21c11.49-7.61,11.8-8.3,9.29-21.85,8.31-1.1,12.64,3.56,10.92,11.41-.76,3.49-1.63,7.26-1.06,10.67.91,5.42,5.41,7.71,10.72,6.46,1.18-.28,2.33-.73,3.51-1,9-2.05,14,2.36,13.3,10.77-4.74-.19-9.59-1.22-14.07-.36-5.1,1-8,5.22-8.95,10.32-.31.16-.44.28-.56.28l-8.34-.46a66.55,66.55,0,0,1,2.42-7.84c1.52-3.47,2.37-6.76-.57-9.8s-6.26-2.37-9.65-.45C305,164,302.38,165.09,299.12,166.66Z"/><path class="cls-6" d="M292.11,201.17c0,4.65.08,7.61-.06,10.56a2.72,2.72,0,0,1-1.37,1.68c-10.85,6-12.18,9.46-8.19,21.32-7.46,1.07-12.4-3.8-11.06-11,.45-2.39,1.31-4.73,1.47-7.14.44-6.77-2.95-10.13-9.7-9.93a12,12,0,0,0-2.81.34c-10.86,2.9-13.94,2.51-15.73-11.69,2.32.88,4.49,1.9,6.77,2.51,6,1.59,13.14-1.28,15-6.85,1.31-4,3.48-4.49,6.81-4.15,1.2.13,2.4.17,4.45.31-.69,2.45-1.17,4.58-1.91,6.63-.4,1.12-1.34,2-1.85,3.15-1.31,2.88-1.8,5.84.83,8.23s5.19,1.41,7.92,0S288.33,202.77,292.11,201.17Z"/><path class="cls-6" d="M313.83,187.93a17.17,17.17,0,0,1,2.45-.48c2.57,0,5.13,0,7.6,0,2.5,10.74,10.12,14.31,21.95,10.06,1.43,7.62-3.88,13-11.18,11.44a45.72,45.72,0,0,0-7.54-1.35c-5.25-.22-8.8,3-9.09,8.26a36.82,36.82,0,0,0,.47,8.12c1.35,8-1.57,11.59-9.33,11.87.11-4.56.83-9.23.18-13.69-.77-5.24-4.91-7.87-10.17-8.9V201.79c2.63,1.3,4.82,2.17,6.79,3.4,4.18,2.6,8,3.06,10.05.58,2.75-3.24,2.1-6.62.19-10.2C315,193.32,314.64,190.64,313.83,187.93Z"/><path class="cls-6" d="M295.76,177.08a7.47,7.47,0,0,1,7.49,7,7.55,7.55,0,0,1-7,7.58,7.31,7.31,0,0,1-.52-14.59Z"/><path class="cls-6" d="M338.11,191.18a7.07,7.07,0,0,1-6.57-6.51,6.61,6.61,0,0,1,13.21.07A7,7,0,0,1,338.11,191.18Z"/><path class="cls-6" d="M260,183.6a6.41,6.41,0,0,1-6.57,6.71,6.59,6.59,0,0,1-6.1-6.79,6.52,6.52,0,0,1,6.46-6.48A6.22,6.22,0,0,1,260,183.6Z"/><path class="cls-6" d="M301.51,226.86a7,7,0,0,1-6.31,6.81c-3.11.14-6.51-3.17-6.67-6.49a6.84,6.84,0,0,1,6.31-6.77C298.12,220.3,301.39,223.48,301.51,226.86Z"/><path class="cls-6" d="M296.7,134.47a5.89,5.89,0,0,1,5.95,6.3,6.2,6.2,0,0,1-6.54,6.29c-3.23-.14-6.28-3.33-6.17-6.43A6.38,6.38,0,0,1,296.7,134.47Z"/><circle class="cls-7" cx="296.3" cy="183.68" r="61"/><path class="cls-8" d="M31.5,542.18s36-33,263-33c221,0,262,33,262,33"/><path class="cls-9" d="M393.44,508.07c.07.22.32.47.12.13-23.69-41.06-49.17-81.84-88.64-109.56-15-10.54-60.7,91.56-70.73,106.08-.48.69-1.84,3.38-1.5.61,8.48-70.27,4.75-105.55,21-189.92,7.38-38.22-110.42-13.66-141.3-7.4-2.38.48-2.4-4.29,1.22-5.55,39.73-13.81,103.71-35.9,139.43-45.29,42.26-11.11,88.25,2.26,118.45-18.39,27.45-18.76,55.2-53.65,82.42-77.4,2.56-2.24,5.2-3.14,4.08,1.37-14,56.45-77.25,91.71-102.77,138.51C340.56,328.2,382,474.12,393.44,508.07Z"/></g></svg>