<?xml version="1.0" encoding="utf-8"?>
<!-- Generator: Adobe Illustrator 22.1.0, SVG Export Plug-In . SVG Version: 6.00 Build 0)  -->
<svg version="1.1" id="Layer_1" xmlns="http://www.w3.org/2000/svg" xmlns:xlink="http://www.w3.org/1999/xlink" x="0px" y="0px"
	 viewBox="0 0 500 500" style="enable-background:new 0 0 500 500;" xml:space="preserve">
<style type="text/css">
	.st0{fill:#6E6F71;}
</style>
<g>
	<g>
		<g>
			<g>
				<path class="st0" d="M387.6,305.1c-2.9,0-5.9-0.2-8.8-0.6c-26-3.7-46.8-23.5-51.9-49.2c-0.8-4,1.8-7.9,5.8-8.7
					c4-0.8,7.9,1.8,8.7,5.8c3.9,19.6,19.8,34.7,39.5,37.5c12.4,1.8,24.8-1.4,34.9-9c10-7.6,16.5-18.6,18.3-31
					c3.6-25.7-14.3-49.6-39.9-53.3c-19.7-2.8-39,7.1-48.3,24.7c-1.9,3.6-6.3,5-10,3.1c-3.6-1.9-5-6.4-3.1-10
					c12.1-23.1,37.6-36.1,63.4-32.4c33.7,4.8,57.3,36.2,52.5,69.9c-2.3,16.4-10.9,30.8-24,40.8C413.7,300.9,400.9,305.1,387.6,305.1
					z"/>
			</g>
		</g>
		<g>
			<path class="st0" d="M387.7,454.8c-2.5,0-4.9-1.3-6.2-3.4c-3.9-6.1-96.2-151.1-96.2-205.3c0-56.6,46-102.6,102.4-102.6
				c48,0,89,32.7,99.8,79.4c1.7,7.6,2.6,15.3,2.6,23.2c0,4.9-0.7,10.5-2.1,17.1c-3.8,17.4-13.1,41-27.4,70.3
				c-27.9,56.9-66.3,117.3-66.7,117.9C392.6,453.5,390.2,454.8,387.7,454.8z M387.7,158.3c-48.4,0-87.7,39.4-87.7,87.8
				c0,42.2,66.7,153.5,87.7,187.4c12-19.3,38.8-63.9,59.7-106.5c13.8-28.3,22.6-50.8,26.2-67c1.2-5.4,1.8-10.1,1.8-13.9
				c0-6.7-0.8-13.4-2.2-19.8C463.9,186.3,428.8,158.3,387.7,158.3z"/>
		</g>
	</g>
	<g>
		<g>
			<path class="st0" d="M134.8,389.2c-1.4,0-2.8-0.4-4-1.2c-2.1-1.4-3.3-3.7-3.3-6.2V98.9c0-2.9,1.7-5.6,4.4-6.7l118.7-52.4
				c2.3-1,4.9-0.8,7,0.6c2.1,1.4,3.3,3.7,3.3,6.2v282.9c0,2.9-1.7,5.6-4.4,6.7l-118.7,52.4C136.8,389,135.8,389.2,134.8,389.2z
				 M142.1,103.8v266.8l104-45.9V57.9L142.1,103.8z"/>
		</g>
		<g>
			<path class="st0" d="M135.9,389.2c-1,0-2-0.2-3-0.6L14.2,336.2c-2.7-1.2-4.4-3.8-4.4-6.7V46.6c0-2.5,1.3-4.8,3.3-6.2
				c2.1-1.4,4.7-1.6,7-0.6l118.7,52.4c2.7,1.2,4.4,3.8,4.4,6.7v282.9c0,2.5-1.3,4.8-3.3,6.2C138.8,388.8,137.3,389.2,135.9,389.2z
				 M24.6,324.7l104,45.9V103.8l-104-45.9V324.7z"/>
		</g>
		<g>
			<path class="st0" d="M297.6,356.3c-1,0-2-0.2-3-0.6l-44.1-19.5c-2.7-1.2-4.4-3.8-4.4-6.7V46.6c0-2.5,1.3-4.8,3.3-6.2
				c2.1-1.4,4.7-1.6,7-0.6l118.7,52.4c2.7,1.2,4.4,3.8,4.4,6.7v53.5c0,4.1-3.3,7.4-7.4,7.4c-4.1,0-7.4-3.3-7.4-7.4v-48.7l-104-45.9
				v266.8l39.7,17.5c3.7,1.6,5.4,6,3.8,9.7C303.2,354.7,300.4,356.3,297.6,356.3z"/>
		</g>
	</g>
</g>
</svg>
