<?xml version="1.0" encoding="utf-8"?>
<!-- Generator: Adobe Illustrator 22.1.0, SVG Export Plug-In . SVG Version: 6.00 Build 0)  -->
<svg version="1.1" id="Layer_1" xmlns="http://www.w3.org/2000/svg" xmlns:xlink="http://www.w3.org/1999/xlink" x="0px" y="0px"
	 viewBox="0 0 500 500" style="enable-background:new 0 0 500 500;" xml:space="preserve">
<style type="text/css">
	.st0{fill:#6E6F71;}
	.st1{opacity:0.58;}
	.st2{clip-path:url(#SVGID_2_);}
	.st3{clip-path:url(#SVGID_4_);fill:#FFFFFF;}
	.st4{clip-path:url(#SVGID_4_);fill-rule:evenodd;clip-rule:evenodd;}
	.st5{clip-path:url(#SVGID_4_);fill-rule:evenodd;clip-rule:evenodd;fill:#FFFFFF;}
	.st6{fill:#555555;}
	.st7{font-family:'Futura-Bold';}
	.st8{font-size:32px;}
</style>
<g>
	<g>
		<g>
			<path class="st0" d="M249.7,93.4c-4.9,0-8.8-4-8.8-8.8c0-35.1,28.6-63.7,63.7-63.7c4.9,0,8.8,4,8.8,8.8c0,4.9-4,8.8-8.8,8.8
				c-25.4,0-46,20.6-46,46C258.6,89.4,254.6,93.4,249.7,93.4z"/>
		</g>
		<g>
			<path class="st0" d="M249.7,93.4c-4.9,0-8.8-4-8.8-8.8c0-25.4-20.6-46-46-46c-4.9,0-8.8-4-8.8-8.8c0-4.9,4-8.8,8.8-8.8
				c35.1,0,63.7,28.6,63.7,63.7C258.6,89.4,254.6,93.4,249.7,93.4z"/>
		</g>
	</g>
	<g>
		<g>
			<path class="st0" d="M194.8,431.1H38.5c-18.8,0-34.1-15.3-34.1-34.1v-342c0-18.8,15.3-34.1,34.1-34.1h156.3c4.9,0,8.8,4,8.8,8.8
				c0,4.9-4,8.8-8.8,8.8H38.5c-9.1,0-16.4,7.4-16.4,16.4v342c0,9.1,7.4,16.4,16.4,16.4h156.3c4.9,0,8.8,4,8.8,8.8
				C203.7,427.1,199.7,431.1,194.8,431.1z"/>
		</g>
		<g>
			<path class="st0" d="M460.9,431.1H304.6c-4.9,0-8.8-4-8.8-8.8c0-4.9,4-8.8,8.8-8.8h156.3c9.1,0,16.4-7.4,16.4-16.4v-342
				c0-9.1-7.4-16.4-16.4-16.4H304.6c-4.9,0-8.8-4-8.8-8.8c0-4.9,4-8.8,8.8-8.8h156.3c18.8,0,34.1,15.3,34.1,34.1v342
				C495,415.8,479.7,431.1,460.9,431.1z"/>
		</g>
		<g>
			<g>
				<path class="st0" d="M249.7,486c-4.9,0-8.8-4-8.8-8.8c0-35.1,28.6-63.7,63.7-63.7c4.9,0,8.8,4,8.8,8.8c0,4.9-4,8.8-8.8,8.8
					c-25.4,0-46,20.6-46,46C258.6,482,254.6,486,249.7,486z"/>
			</g>
			<g>
				<path class="st0" d="M249.7,486c-4.9,0-8.8-4-8.8-8.8c0-25.4-20.6-46-46-46c-4.9,0-8.8-4-8.8-8.8c0-4.9,4-8.8,8.8-8.8
					c35.1,0,63.7,28.6,63.7,63.7C258.6,482,254.6,486,249.7,486z"/>
			</g>
		</g>
		<g>
			<path class="st0" d="M249.7,486c-4.9,0-8.8-4-8.8-8.8V69.2c0-4.9,4-8.8,8.8-8.8c4.9,0,8.8,4,8.8,8.8v407.9
				C258.6,482,254.6,486,249.7,486z"/>
		</g>
	</g>
</g>
<g class="st1">
	<g>
		<defs>
			<rect id="SVGID_1_" x="22.1" y="113.5" width="214.8" height="214.8"/>
		</defs>
		<clipPath id="SVGID_2_">
			<use xlink:href="#SVGID_1_"  style="overflow:visible;"/>
		</clipPath>
		<g class="st2">
			<defs>
				<rect id="SVGID_3_" x="22.1" y="113.5" width="214.8" height="214.8"/>
			</defs>
			<clipPath id="SVGID_4_">
				<use xlink:href="#SVGID_3_"  style="overflow:visible;"/>
			</clipPath>
			<path class="st3" d="M23.4,114.9h214.8v214.8H23.4V114.9z M131.3,327.1c57.5,0,104.4-47,103.8-105.3
				c-0.6-62.5-51.7-105.1-104.9-104.5c-56.7,0.6-102.7,47.4-102.9,106C27.2,280.4,74,327.1,131.3,327.1"/>
			<path class="st4" d="M131.3,327.1c-57.3,0-104.1-46.7-103.9-103.8c0.2-58.7,46.1-105.4,102.9-106c53.1-0.6,104.2,42,104.9,104.5
				C235.7,280.1,188.9,327.1,131.3,327.1 M228.6,222.5c0.1-54.7-42.7-98.3-96.7-98.3c-53.4,0-97.4,43.8-97.6,97.3
				c-0.2,53.8,43.4,98.1,96.2,98.8C182.3,320.9,229.9,277.6,228.6,222.5"/>
			<path class="st5" d="M228.6,222.5c1.3,55.1-46.3,98.4-98.1,97.7c-52.8-0.7-96.4-44.9-96.2-98.8c0.2-53.5,44.2-97.3,97.6-97.3
				C185.9,124.2,228.8,167.7,228.6,222.5 M125.3,193.1c0.7-0.5,1.4-1,2.1-1.6c0-5.1,0.2-10.2-0.1-15.2c-0.1-1.1-1.5-2.7-2.7-3.2
				c-13.1-6.3-18.1-18-13.4-31.6c0.7-2,1.3-3.9,2.5-7.6c-6.1,2.1-10.5,3.7-14.9,5.1c-5,1.6-7.4,4.9-6.6,10.2c0.6,4,1.5,7.9,2.3,11.8
				c3.6,16.6-5.2,25.3-21.6,21.5c-3.7-0.9-7.5-1.4-11.3-1.4c-8.7-0.2-16.2,10-14.2,19.1c26.5-6.2,32.2-3.9,38.9,16.1H102
				c-1.5-4.7-2.7-8.7-4-12.6c-0.6-1.7-1.3-3.3-2-5c-2.2-4.9-0.7-9.8,3.3-11.8c3.4-1.6,8.5-1,12.5,0.1
				C116.6,188.1,120.8,190.9,125.3,193.1 M137,193.4c5.4-2.6,9.8-4.4,13.9-6.8c5.6-3.2,11-4.4,15.9,0.7c4.9,5,3.5,10.5,0.9,16.2
				c-1.8,4.1-2.7,8.6-4,13c4.6,0.3,9.2,0.5,13.8,0.8c0.2,0,0.4-0.2,0.9-0.5c1.5-8.4,6.4-15.4,14.8-17c7.4-1.4,15.4,0.3,23.3,0.6
				c1.1-13.9-7.1-21.2-22-17.8c-2,0.4-3.9,1.2-5.8,1.7c-8.8,2.1-16.2-1.7-17.7-10.7c-0.9-5.6,0.5-11.9,1.8-17.6
				c2.8-13-4.3-20.7-18.1-18.9c4.2,22.4,3.6,23.5-15.4,36.1c-1.1,0.7-2.2,2.4-2.3,3.6C136.9,181.7,137,186.6,137,193.4 M125.4,250.4
				c-6.3,2.6-11.1,4.4-15.7,6.7c-4.5,2.3-8.9,3.7-13.1-0.1c-4.4-4-3.5-8.9-1.4-13.6c0.8-1.8,2.4-3.3,3.1-5.2c1.2-3.4,2-6.9,3.1-10.9
				c-3.4-0.2-5.4-0.3-7.3-0.5c-5.5-0.6-9.1,0.3-11.3,6.9c-3,9.2-14.8,13.9-24.7,11.3c-3.8-1-7.4-2.7-11.2-4.1c3,23.5,8,24.1,26,19.3
				c1.5-0.4,3.1-0.5,4.6-0.5c11.2-0.3,16.8,5.2,16,16.4c-0.3,4-1.7,7.9-2.4,11.8c-2.2,11.8,5.9,19.9,18.3,18.1
				c-6.6-19.6-4.4-25.3,13.5-35.2c1-0.6,2.2-1.8,2.3-2.8C125.6,263,125.4,258.1,125.4,250.4 M161.3,228.5c1.3,4.5,1.9,8.9,3.9,12.6
				c3.2,5.9,4.2,11.5-0.3,16.9c-3.5,4.1-9.7,3.3-16.6-1c-3.3-2-6.9-3.5-11.2-5.6v18.9c8.7,1.7,15.5,6.1,16.8,14.7
				c1.1,7.4-0.1,15.1-0.3,22.6c12.8-0.5,17.6-6.4,15.4-19.6c-0.7-4.4-1-9-0.8-13.4c0.5-8.7,6.4-14,15-13.7c4.2,0.2,8.3,1.3,12.5,2.2
				c12.1,2.6,20.8-6.3,18.5-18.9c-19.6,7-32.2,1.1-36.3-16.6c-4.1,0-8.3,0-12.6,0C164.5,227.7,163.7,228.1,161.3,228.5 M131.5,210.6
				c-6.4,0.1-11.4,5.6-11.1,12.5c0.2,6.8,5.4,11.9,12,11.7c6.3-0.2,11.6-6,11.5-12.5C143.8,216,137.9,210.5,131.5,210.6
				 M201.5,233.9c5.5,0,10.8-5.1,11-10.7c0.2-5.7-4.7-10.8-10.5-10.9c-6.3-0.1-11.4,4.7-11.3,10.8
				C190.7,228.6,196.1,233.9,201.5,233.9 M72.3,221.4c0-6.2-4.4-10.9-10.3-10.8c-5.9,0-10.5,4.7-10.7,10.7
				c-0.1,5.9,4.5,11.1,10.1,11.2C67.6,232.6,72.3,227.8,72.3,221.4 M141,292.9c-0.2-5.6-5.6-10.8-11-10.7
				c-5.6,0.2-10.7,5.7-10.4,11.2c0.3,5.5,5.9,11,11,10.7C136.1,303.9,141.1,298.4,141,292.9 M133,140.2c-6.2-0.1-10.9,4.2-11.2,10.2
				c-0.2,5.1,4.9,10.4,10.2,10.6c6,0.3,10.7-4.2,10.8-10.4C143,144.6,138.9,140.2,133,140.2"/>
			<path class="st4" d="M125.3,193.1c-4.4-2.2-8.7-5-13.3-6.3c-4-1.1-9.1-1.8-12.5-0.1c-4,1.9-5.5,6.9-3.3,11.8c0.7,1.6,1.4,3.3,2,5
				c1.3,3.9,2.5,7.9,4,12.6H86.3c-6.8-19.9-12.4-22.3-38.9-16c-2-9.1,5.5-19.3,14.2-19.1c3.8,0.1,7.6,0.6,11.3,1.4
				c16.4,3.8,25.2-4.9,21.6-21.5c-0.8-3.9-1.7-7.8-2.3-11.8c-0.8-5.3,1.6-8.5,6.6-10.2c4.4-1.4,8.8-3,14.9-5.1
				c-1.2,3.7-1.8,5.7-2.5,7.6c-4.6,13.7,0.4,25.3,13.4,31.6c1.2,0.6,2.6,2.1,2.7,3.2c0.3,5.1,0.1,10.1,0.1,15.2
				C126.7,192.1,126,192.6,125.3,193.1"/>
			<path class="st4" d="M137,193.4c0-6.8-0.2-11.7,0.1-16.6c0.1-1.3,1.2-2.9,2.3-3.6c19-12.6,19.5-13.7,15.4-36.1
				c13.7-1.8,20.9,5.9,18.1,18.9c-1.3,5.8-2.7,12-1.8,17.6c1.5,9,8.9,12.7,17.7,10.7c2-0.5,3.9-1.2,5.8-1.7
				c14.9-3.4,23.1,3.9,22,17.8c-7.8-0.3-15.8-2-23.3-0.6c-8.4,1.6-13.3,8.6-14.8,17c-0.5,0.3-0.7,0.5-0.9,0.5
				c-4.6-0.2-9.2-0.5-13.8-0.8c1.3-4.3,2.2-8.9,4-13c2.5-5.7,3.9-11.2-0.9-16.2c-5-5.1-10.4-3.9-15.9-0.7
				C146.8,188.9,142.4,190.8,137,193.4"/>
			<path class="st4" d="M125.4,250.4c0,7.7,0.1,12.6-0.1,17.4c0,1-1.3,2.2-2.3,2.8c-17.9,10-20.1,15.7-13.5,35.2
				c-12.3,1.8-20.5-6.3-18.3-18.1c0.7-3.9,2.2-7.8,2.4-11.8c0.7-11.2-4.9-16.8-16-16.4c-1.6,0-3.2,0.1-4.6,0.5
				c-18,4.8-23,4.1-26-19.3c3.8,1.4,7.4,3.1,11.2,4.1c9.9,2.6,21.7-2.1,24.7-11.3c2.2-6.6,5.8-7.4,11.3-6.9c2,0.2,4,0.3,7.3,0.5
				c-1.1,4-1.9,7.6-3.1,10.9c-0.7,1.9-2.2,3.4-3.1,5.2c-2.2,4.8-3,9.7,1.4,13.6c4.2,3.8,8.6,2.3,13.1,0.1
				C114.3,254.8,119.2,253.1,125.4,250.4"/>
			<path class="st4" d="M161.3,228.5c2.4-0.5,3.2-0.8,4-0.8c4.2,0,8.5,0,12.6,0c4.1,17.7,16.7,23.6,36.3,16.6
				c2.4,12.6-6.4,21.5-18.5,18.9c-4.1-0.9-8.3-2-12.5-2.2c-8.7-0.4-14.5,5-15,13.7c-0.2,4.4,0,9,0.8,13.4
				c2.2,13.2-2.6,19.2-15.4,19.6c0.2-7.5,1.4-15.3,0.3-22.6c-1.3-8.7-8.1-13-16.8-14.7v-18.9c4.3,2.1,8,3.6,11.2,5.6
				c6.9,4.3,13.1,5.1,16.6,1c4.5-5.4,3.5-11,0.3-16.9C163.3,237.4,162.7,233,161.3,228.5"/>
			<path class="st4" d="M131.5,210.6c6.5-0.1,12.3,5.4,12.4,11.6c0.1,6.5-5.3,12.3-11.5,12.5c-6.6,0.2-11.8-4.8-12-11.7
				C120.1,216.2,125.1,210.7,131.5,210.6"/>
			<path class="st4" d="M201.5,233.9c-5.4,0-10.8-5.3-10.9-10.8c-0.1-6,5-10.9,11.3-10.8c5.8,0.1,10.7,5.2,10.5,10.9
				C212.3,228.8,207,233.9,201.5,233.9"/>
			<path class="st4" d="M72.3,221.4c0,6.5-4.7,11.3-10.9,11.1c-5.6-0.1-10.2-5.3-10.1-11.2c0.1-6,4.8-10.7,10.7-10.7
				C67.9,210.5,72.3,215.2,72.3,221.4"/>
			<path class="st4" d="M141,292.9c0.2,5.5-4.9,11-10.4,11.3c-5.1,0.2-10.8-5.2-11-10.7c-0.3-5.5,4.8-11,10.4-11.2
				C135.4,282.1,140.8,287.3,141,292.9"/>
			<path class="st4" d="M133,140.2c5.8,0.1,9.9,4.4,9.8,10.4c-0.1,6.1-4.8,10.6-10.8,10.4c-5.3-0.2-10.4-5.5-10.2-10.6
				C122.1,144.4,126.8,140.1,133,140.2"/>
		</g>
	</g>
</g>
<text transform="matrix(1 0 0 1 275.9201 198.8484)" class="st6 st7 st8">PROGRAM</text>
</svg>
