<?xml version="1.0" encoding="utf-8"?>
<!-- Generator: Adobe Illustrator 22.1.0, SVG Export Plug-In . SVG Version: 6.00 Build 0)  -->
<svg version="1.1" id="Layer_1" xmlns="http://www.w3.org/2000/svg" xmlns:xlink="http://www.w3.org/1999/xlink" x="0px" y="0px"
	 viewBox="0 0 500 500" style="enable-background:new 0 0 500 500;" xml:space="preserve">
<style type="text/css">
	.st0{fill:#6E6F71;}
</style>
<g>
	<g>
		<g>
			<path class="st0" d="M296.6,407.3c-1,0-1.9-0.3-2.8-0.8c-0.2-0.2-24.6-15-43-11.1c-2.9,0.6-5.7-1.2-6.3-4.1
				c-0.6-2.9,1.2-5.7,4.1-6.3c22.6-4.8,49.6,11.8,50.8,12.5c2.5,1.6,3.3,4.9,1.7,7.4C300.2,406.4,298.4,407.3,296.6,407.3z"/>
		</g>
	</g>
	<g>
		<g>
			<path class="st0" d="M306.2,459.4c-2.4,0-4.6-1.6-5.2-4.1c-1.1-4.3-25.1-102.6-1.1-149.1c-3.2-3.8-11.3-10.9-26.3-10.3
				c-15.9,0.6-24.4,6.3-27.4,8.9c1.7,17.7,11.9,123.1,18.5,147.8c0.8,2.9-0.9,5.8-3.8,6.6c-2.9,0.8-5.8-0.9-6.6-3.8
				c-7.5-27.7-18.6-147-19.1-152.1c-0.1-1.4,0.3-2.7,1.1-3.8c0.4-0.5,10.9-13.3,36.8-14.3c26.6-1,37.2,17.2,37.7,18
				c0.9,1.7,0.9,3.7-0.1,5.4c-24.6,41.3,0.3,143.1,0.6,144.2c0.7,2.9-1,5.8-3.9,6.5C307,459.3,306.6,459.4,306.2,459.4z"/>
		</g>
	</g>
	<g>
		<g>
			<path class="st0" d="M189.2,333.5c-3.8,0-7.7-0.3-11.8-1c-2.9-0.5-4.9-3.3-4.4-6.2c0.5-2.9,3.2-4.9,6.2-4.4
				c33.4,5.7,57.2-19.5,57.4-19.8c2-2.2,5.4-2.3,7.6-0.3c2.2,2,2.3,5.4,0.3,7.6C243.5,310.6,221.8,333.5,189.2,333.5z"/>
		</g>
	</g>
	<g>
		<g>
			<path class="st0" d="M272.5,290.7L272.5,290.7c-1.9,0-3.6-0.9-4.7-2.3c-6.7-9.1-19.6-37.3-11.7-53c2.4-4.8,7.7-10.5,19.4-10.5
				c2.3,0,4.8,0.2,7.4,0.7c13.5,2.2,20.7,10.3,19.8,22.1C301.3,264.7,280.2,290.7,272.5,290.7z M275.6,235.6c-6.8,0-8.9,2.6-9.9,4.6
				c-4.3,8.6,2.1,27.3,8.1,37.8c6.7-6.5,19.8-24,18.1-34.3c-0.3-1.6-1-6-10.7-7.6C279.2,235.7,277.3,235.6,275.6,235.6z"/>
		</g>
	</g>
	<g>
		<g>
			<path class="st0" d="M329.3,366.4c-0.3,0-0.6,0-0.9-0.1c-2.9-0.5-4.9-3.2-4.4-6.2c5-30.6-19.9-49.2-21-50
				c-2.4-1.7-2.9-5.1-1.2-7.5c1.7-2.4,5.1-2.9,7.5-1.2c1.3,0.9,31.4,23.2,25.3,60.4C334.1,364.5,331.9,366.4,329.3,366.4z"/>
		</g>
	</g>
	<g>
		<g>
			<path class="st0" d="M214.2,459.4c-2.2,0-4.3-1.4-5.1-3.7L78.1,57.4c-0.8-2.4,0.2-5.1,2.5-6.4c1.4-0.7,136.6-74.4,263.7-29.8
				c2.6,0.9,4,3.6,3.4,6.2l-29.9,131.2c-0.3,1.5-1.3,2.7-2.6,3.5c-1.3,0.7-2.9,0.9-4.3,0.4c-0.8-0.3-79.5-24.8-163.8,18.7
				c-2.6,1.4-5.9,0.3-7.2-2.3c-1.4-2.6-0.3-5.9,2.3-7.2c76.1-39.3,146.3-26,166.3-20.9l27.5-121C227-6,112.1,47.1,89.7,58.3
				l129.6,394c0.9,2.8-0.6,5.8-3.4,6.8C215.3,459.3,214.8,459.4,214.2,459.4z"/>
		</g>
	</g>
	<g>
		<g>
			<path class="st0" d="M388.9,214.1c-0.9,0-1.7-0.2-2.5-0.6c-44.1-23.3-112.3-21.1-113-21c-1.6,0.1-3.1-0.6-4.2-1.7
				c-1.1-1.2-1.6-2.7-1.3-4.3l2.9-21.7c0.4-2.9,3.1-5,6-4.6c2.9,0.4,5,3.1,4.6,6l-2.1,15.6c17.4,0,66.2,1.5,104.5,18.7
				c1.8-33.2,11.3-55.6,21.3-79.2c5.1-12,10.3-24.4,14.9-39c-30-24.7-83-23-83.6-23c-3,0.1-5.4-2.2-5.6-5.1c-0.1-3,2.2-5.4,5.1-5.6
				c2.5-0.1,61.1-2,93.7,28c1.5,1.4,2.1,3.5,1.5,5.5c-5,16.6-10.8,30.2-16.3,43.3c-10.8,25.6-20.2,47.7-20.7,83.5
				c0,1.9-1,3.6-2.6,4.5C390.7,213.9,389.8,214.1,388.9,214.1z"/>
		</g>
	</g>
	<g>
		<g>
			<path class="st0" d="M465.9,491.8H359c-3,0-5.4-2.4-5.4-5.4v-27h-158v12.9c0,3-2.4,5.4-5.4,5.4H27.3c-3,0-5.4-2.4-5.4-5.4
				c0-3,2.4-5.4,5.4-5.4h157.6V454c0-3,2.4-5.4,5.4-5.4H359c3,0,5.4,2.4,5.4,5.4v27h101.6c3,0,5.4,2.4,5.4,5.4
				C471.3,489.4,468.9,491.8,465.9,491.8z"/>
		</g>
	</g>
</g>
</svg>
