<?xml version="1.0" encoding="utf-8"?>
<!-- Generator: Adobe Illustrator 22.1.0, SVG Export Plug-In . SVG Version: 6.00 Build 0)  -->
<svg version="1.1" id="Layer_1" xmlns="http://www.w3.org/2000/svg" xmlns:xlink="http://www.w3.org/1999/xlink" x="0px" y="0px"
	 viewBox="0 0 500 500" style="enable-background:new 0 0 500 500;" xml:space="preserve">
<style type="text/css">
	.st0{opacity:0.6654;}
	.st1{clip-path:url(#SVGID_2_);}
	.st2{clip-path:url(#SVGID_4_);fill:#FFFFFF;}
	.st3{clip-path:url(#SVGID_4_);fill-rule:evenodd;clip-rule:evenodd;}
	.st4{clip-path:url(#SVGID_4_);fill-rule:evenodd;clip-rule:evenodd;fill:#FFFFFF;}
	.st5{fill:#6E6F71;}
</style>
<g class="st0">
	<g>
		<defs>
			<rect id="SVGID_1_" x="126.9" y="42.3" width="248.9" height="248.9"/>
		</defs>
		<clipPath id="SVGID_2_">
			<use xlink:href="#SVGID_1_"  style="overflow:visible;"/>
		</clipPath>
		<g class="st1">
			<defs>
				<rect id="SVGID_3_" x="126.9" y="42.3" width="248.9" height="248.9"/>
			</defs>
			<clipPath id="SVGID_4_">
				<use xlink:href="#SVGID_3_"  style="overflow:visible;"/>
			</clipPath>
			<path class="st2" d="M128.5,43.9h248.9v248.9H128.5V43.9z M253.5,289.8c66.7,0,120.9-54.4,120.3-122
				C373.1,95.4,313.9,46,252.3,46.7c-65.7,0.7-119,54.9-119.2,122.8C132.9,235.7,187.1,289.8,253.5,289.8"/>
			<path class="st3" d="M253.5,289.8c-66.4,0-120.6-54.1-120.4-120.3c0.2-68,53.4-122.1,119.2-122.8
				c61.5-0.7,120.8,48.7,121.5,121.1C374.5,235.4,320.2,289.8,253.5,289.8 M366.3,168.6c0.2-63.4-49.5-113.9-112.1-113.9
				c-61.9,0-112.8,50.8-113,112.7c-0.2,62.4,50.3,113.6,111.5,114.4C312.6,282.6,367.8,232.5,366.3,168.6"/>
			<path class="st4" d="M366.3,168.6c1.5,63.9-53.7,114-113.7,113.3c-61.2-0.8-111.7-52.1-111.5-114.4
				c0.2-61.9,51.2-112.7,113-112.7C316.8,54.7,366.4,105.2,366.3,168.6 M246.5,134.5c0.8-0.6,1.6-1.2,2.4-1.8
				c0-5.9,0.2-11.8-0.1-17.6c-0.1-1.3-1.7-3.1-3.1-3.7c-15.1-7.3-20.9-20.8-15.5-36.7c0.8-2.3,1.5-4.6,2.9-8.8
				c-7.1,2.4-12.1,4.3-17.2,5.9c-5.8,1.9-8.6,5.7-7.7,11.8c0.7,4.6,1.7,9.1,2.7,13.7c4.1,19.2-6.1,29.3-25,24.9
				c-4.3-1-8.7-1.6-13.1-1.7c-10.1-0.3-18.8,11.6-16.5,22.1c30.7-7.2,37.3-4.5,45.1,18.6h18.2c-1.7-5.5-3.1-10.1-4.6-14.6
				c-0.6-2-1.5-3.9-2.3-5.8c-2.5-5.7-0.8-11.4,3.8-13.7c3.9-1.9,9.9-1.1,14.5,0.1C236.5,128.8,241.4,132,246.5,134.5 M260.1,134.9
				c6.2-3,11.3-5.1,16.1-7.8c6.5-3.7,12.7-5.1,18.5,0.9c5.6,5.8,4,12.1,1.1,18.8c-2.1,4.8-3.1,10-4.6,15c5.3,0.3,10.7,0.6,16,0.9
				c0.2,0,0.5-0.2,1.1-0.5c1.8-9.8,7.4-17.9,17.2-19.8c8.6-1.6,17.9,0.3,26.9,0.7c1.3-16.1-8.3-24.6-25.5-20.6
				c-2.3,0.5-4.5,1.4-6.7,1.9c-10.2,2.4-18.8-2-20.5-12.4c-1.1-6.5,0.6-13.7,2-20.4c3.3-15-5-24-20.9-21.9
				c4.8,26,4.2,27.3-17.8,41.8c-1.3,0.9-2.6,2.8-2.6,4.2C260,121.3,260.1,127,260.1,134.9 M246.7,201c-7.2,3.1-12.8,5.1-18.1,7.8
				c-5.2,2.6-10.4,4.3-15.2-0.1c-5-4.6-4.1-10.3-1.6-15.8c1-2.1,2.8-3.9,3.5-6c1.4-3.9,2.3-8,3.6-12.7c-3.9-0.3-6.2-0.4-8.5-0.6
				c-6.4-0.7-10.5,0.3-13,7.9c-3.5,10.7-17.2,16.2-28.7,13.1c-4.4-1.2-8.5-3.1-13-4.8c3.4,27.2,9.3,27.9,30.1,22.4
				c1.7-0.5,3.6-0.6,5.4-0.6c12.9-0.4,19.4,6.1,18.6,19c-0.3,4.6-2,9.1-2.8,13.7c-2.6,13.7,6.9,23,21.2,21
				c-7.6-22.7-5.1-29.3,15.7-40.8c1.2-0.6,2.6-2.1,2.6-3.2C246.9,215.5,246.7,209.9,246.7,201 M288.3,175.6
				c1.5,5.2,2.3,10.3,4.5,14.6c3.7,6.9,4.9,13.3-0.4,19.5c-4,4.7-11.3,3.9-19.3-1.1c-3.8-2.3-8-4-13-6.5v21.9c10.1,2,18,7,19.5,17
				c1.3,8.6-0.1,17.5-0.3,26.2c14.9-0.5,20.4-7.4,17.9-22.7c-0.9-5.1-1.2-10.4-0.9-15.5c0.6-10,7.4-16.3,17.4-15.8
				c4.8,0.2,9.7,1.5,14.4,2.6c14,3,24.1-7.3,21.4-21.9c-22.7,8.1-37.3,1.3-42.1-19.3c-4.7,0-9.6,0-14.6,0
				C292,174.7,291,175.1,288.3,175.6 M253.7,154.8c-7.4,0.1-13.2,6.5-12.9,14.4c0.2,7.9,6.2,13.8,13.9,13.5
				c7.2-0.2,13.4-6.9,13.4-14.5C268,161,261.2,154.7,253.7,154.8 M334.8,181.8c6.4,0,12.5-5.9,12.7-12.3c0.2-6.6-5.4-12.5-12.2-12.6
				c-7.3-0.1-13.2,5.5-13.1,12.5C322.3,175.6,328.6,181.8,334.8,181.8 M185.2,167.3c0-7.2-5.1-12.6-11.9-12.6
				c-6.8,0-12.2,5.5-12.4,12.4c-0.2,6.8,5.2,12.8,11.7,13C179.8,180.3,185.2,174.8,185.2,167.3 M264.7,250.2
				c-0.2-6.5-6.5-12.6-12.8-12.4c-6.5,0.2-12.4,6.6-12.1,13c0.3,6.4,6.8,12.7,12.8,12.4C259,262.9,264.9,256.6,264.7,250.2
				 M255.5,73.2c-7.2-0.1-12.7,4.9-12.9,11.8c-0.2,5.9,5.6,12,11.8,12.3c7,0.3,12.4-4.9,12.5-12C267,78.4,262.3,73.3,255.5,73.2"/>
			<path class="st3" d="M246.5,134.5c-5.1-2.5-10-5.8-15.5-7.3c-4.6-1.3-10.5-2-14.5-0.1c-4.7,2.3-6.3,8-3.8,13.7
				c0.8,1.9,1.6,3.8,2.3,5.8c1.5,4.6,2.9,9.1,4.6,14.6h-18.2c-7.8-23.1-14.4-25.8-45.1-18.6c-2.3-10.6,6.3-22.4,16.5-22.1
				c4.4,0.1,8.8,0.7,13.1,1.7c18.9,4.4,29.2-5.7,25-24.9c-1-4.5-2-9.1-2.7-13.7c-0.9-6.1,1.9-9.9,7.7-11.8
				c5.1-1.6,10.2-3.5,17.2-5.9c-1.4,4.3-2.1,6.6-2.9,8.8c-5.4,15.8,0.4,29.4,15.5,36.7c1.4,0.7,3,2.4,3.1,3.7
				c0.3,5.9,0.1,11.8,0.1,17.6C248.1,133.3,247.3,133.9,246.5,134.5"/>
			<path class="st3" d="M260.1,134.9c0-7.9-0.2-13.6,0.1-19.2c0.1-1.5,1.3-3.4,2.6-4.2c22-14.6,22.6-15.9,17.8-41.8
				c15.9-2.1,24.2,6.8,20.9,21.9c-1.5,6.7-3.1,13.9-2,20.4c1.7,10.4,10.4,14.8,20.5,12.4c2.3-0.5,4.5-1.4,6.7-1.9
				c17.2-3.9,26.7,4.5,25.5,20.6c-9.1-0.4-18.4-2.3-26.9-0.7c-9.8,1.9-15.4,10-17.2,19.8c-0.6,0.3-0.8,0.5-1.1,0.5
				c-5.3-0.3-10.7-0.6-16-0.9c1.5-5,2.5-10.3,4.6-15c2.9-6.6,4.5-12.9-1.1-18.8c-5.8-5.9-12-4.5-18.5-0.9
				C271.5,129.7,266.4,131.9,260.1,134.9"/>
			<path class="st3" d="M246.7,201c0,8.9,0.1,14.6-0.1,20.2c-0.1,1.1-1.5,2.6-2.6,3.2c-20.8,11.6-23.3,18.1-15.7,40.8
				c-14.3,2.1-23.7-7.3-21.2-21c0.9-4.6,2.5-9.1,2.8-13.7c0.8-13-5.7-19.4-18.6-19c-1.8,0.1-3.7,0.2-5.4,0.6
				c-20.8,5.6-26.7,4.8-30.1-22.4c4.5,1.7,8.6,3.6,13,4.8c11.5,3,25.2-2.4,28.7-13.1c2.5-7.7,6.7-8.6,13-7.9
				c2.3,0.2,4.6,0.3,8.5,0.6c-1.3,4.7-2.2,8.8-3.6,12.7c-0.8,2.2-2.6,3.9-3.5,6c-2.5,5.5-3.5,11.2,1.6,15.8
				c4.8,4.4,9.9,2.7,15.2,0.1C233.9,206.1,239.5,204,246.7,201"/>
			<path class="st3" d="M288.3,175.6c2.7-0.6,3.7-0.9,4.7-0.9c4.9-0.1,9.8,0,14.6,0c4.8,20.6,19.4,27.4,42.1,19.3
				c2.7,14.6-7.4,25-21.4,21.9c-4.8-1-9.6-2.4-14.4-2.6c-10-0.4-16.9,5.8-17.4,15.8c-0.3,5.2,0,10.4,0.9,15.5
				c2.6,15.3-3,22.2-17.9,22.7c0.2-8.7,1.6-17.7,0.3-26.2c-1.5-10-9.4-15.1-19.5-17v-21.9c5,2.5,9.2,4.2,13,6.5
				c8,5,15.2,5.9,19.3,1.1c5.3-6.2,4-12.7,0.4-19.5C290.6,185.9,289.9,180.8,288.3,175.6"/>
			<path class="st3" d="M253.7,154.8c7.5-0.1,14.3,6.2,14.3,13.4c0.1,7.6-6.1,14.3-13.3,14.5c-7.7,0.2-13.7-5.6-13.9-13.5
				C240.6,161.3,246.3,154.9,253.7,154.8"/>
			<path class="st3" d="M334.8,181.8c-6.3,0-12.5-6.2-12.6-12.5c-0.1-7,5.8-12.6,13.1-12.5c6.8,0.1,12.4,6,12.2,12.6
				C347.3,175.9,341.2,181.8,334.8,181.8"/>
			<path class="st3" d="M185.2,167.3c0,7.5-5.4,13-12.6,12.9c-6.4-0.2-11.8-6.2-11.7-13c0.2-6.9,5.6-12.4,12.4-12.4
				C180.1,154.7,185.2,160.1,185.2,167.3"/>
			<path class="st3" d="M264.7,250.2c0.2,6.4-5.7,12.8-12.1,13c-6,0.3-12.5-6.1-12.8-12.4c-0.3-6.4,5.6-12.8,12.1-13
				C258.2,237.6,264.5,243.7,264.7,250.2"/>
			<path class="st3" d="M255.5,73.2c6.8,0.1,11.5,5.1,11.4,12.1c-0.1,7.1-5.6,12.3-12.5,12c-6.2-0.3-12-6.4-11.8-12.3
				C242.8,78.1,248.3,73.1,255.5,73.2"/>
		</g>
	</g>
</g>
<g>
	<g>
		<g>
			<g>
				<path class="st5" d="M241.3,330.2c-8.5,0-16.2-5.2-21.1-14.2c-4.9-9-15-14.8-25.9-14.8c-3.6,0-7,0.6-10.2,1.9
					c-10.4,4.2-20.6,2.6-27-4c-4.6-4.7-6.9-11.4-6.6-19.3c0.4-14-10.7-27-24.7-29c-9.6-1.3-16.8-6-20.1-13.2
					c-3.3-7.1-2.4-15.6,2.7-23.7c7.4-11.9,4.4-28.7-6.8-37.3c-7.6-5.9-11.5-13.5-10.8-21.4c0.7-7.9,5.7-14.7,14.3-19.3
					c12.4-6.7,18.3-22.7,13-35.7c-3.6-8.8-3.2-17.1,1.2-23.6c4.5-6.6,12.4-10.2,22.2-9.9l0.7,0c13.8,0,26.6-11,28.5-24.5
					c1.9-13.3,10.6-21.9,22.2-21.9c4.9,0,10,1.6,14.9,4.6c4.3,2.6,9.3,4,14.7,4c9.2,0,17.8-4,23-10.7c5.5-7,12.5-10.8,19.8-10.8
					c8.5,0,16.2,5.2,21.1,14.2c4.9,9,15,14.8,25.9,14.8h0c3.6,0,7-0.6,10.1-1.9c10.4-4.2,20.6-2.7,27,4c4.6,4.7,6.9,11.4,6.6,19.3
					c-0.4,13.8,10.9,27.1,24.7,29c9.6,1.3,16.8,6,20.1,13.2c3.3,7.1,2.4,15.6-2.7,23.7c-7.4,11.9-4.4,28.7,6.8,37.3
					c7.6,5.9,11.5,13.5,10.8,21.4c-0.7,7.9-5.7,14.7-14.3,19.3c-12.4,6.7-18.3,22.7-13,35.7c3.6,8.8,3.1,17.1-1.2,23.6
					c-4.5,6.6-12.4,10.2-22.2,9.9l-0.7,0c-13.8,0-26.6,11-28.5,24.5c-1.9,13.3-10.6,21.9-22.2,21.9c-4.9,0-10-1.6-14.9-4.6
					c-4.3-2.6-9.3-4-14.7-4c-9.2,0-17.8,4-23,10.7C255.6,326.3,248.6,330.2,241.3,330.2z M194.4,291.4c14.3,0,27.9,7.8,34.4,19.9
					c3.2,5.9,7.7,9.1,12.5,9.1c4.2,0,8.5-2.5,12.1-7.1c7.1-9,18.6-14.4,30.7-14.4c7.1,0,13.9,1.9,19.7,5.4c3.4,2.1,6.8,3.2,9.8,3.2
					c6.7,0,11.4-5.1,12.6-13.6c2.7-18.8,20-33.4,39.2-32.9l0.8,0c6,0,10.6-2,13.1-5.6c2.5-3.7,2.6-8.8,0.2-14.5
					c-7.1-17.5,0.7-39,17.4-47.9c5.5-3,8.8-7.1,9.2-11.5c0.4-4.5-2.1-9-7.1-12.9c-15-11.6-19-34.1-9.1-50.1c3.3-5.3,4-10.4,2.1-14.5
					c-1.9-4.1-6.4-6.8-12.7-7.7c-18.8-2.6-33.6-20.1-33.1-38.9c0.2-5.3-1.2-9.5-3.9-12.3c-3.6-3.7-9.7-4.4-16.4-1.7
					c-4.3,1.7-9,2.6-13.8,2.6h0c-14.4,0-27.9-7.8-34.4-19.9c-3.2-5.8-7.7-9.1-12.5-9.1c-4.2,0-8.5,2.5-12.1,7.1
					c-7.1,9-18.6,14.4-30.7,14.4c-7.1,0-13.9-1.9-19.7-5.4c-3.4-2.1-6.8-3.2-9.8-3.2c-6.7,0-11.3,5.1-12.6,13.6
					c-2.7,18.8-20,33.4-39.2,32.9l-0.8,0c-6,0-10.7,2-13.1,5.6c-2.5,3.7-2.5,8.8-0.2,14.5c7.1,17.5-0.7,39-17.4,47.9
					c-5.5,3-8.8,7.1-9.2,11.5c-0.4,4.5,2.1,9,7.1,12.9c15,11.6,19,34.1,9.1,50.2c-3.3,5.3-4,10.4-2.1,14.5c1.9,4.1,6.4,6.8,12.7,7.7
					c18.8,2.6,33.6,20.1,33.1,38.9c-0.2,5.3,1.2,9.5,3.9,12.3c3.6,3.7,9.8,4.4,16.4,1.7C184.9,292.3,189.6,291.4,194.4,291.4z"/>
			</g>
		</g>
		<g>
			<g>
				<path class="st5" d="M253.4,286.1c-64.7,0-117.4-52.7-117.4-117.4S188.6,51.4,253.4,51.4c64.7,0,117.4,52.7,117.4,117.4
					S318.1,286.1,253.4,286.1z M253.4,61.1c-59.4,0-107.6,48.3-107.6,107.6c0,59.4,48.3,107.6,107.6,107.6S361,228.1,361,168.8
					C361,109.4,312.7,61.1,253.4,61.1z"/>
			</g>
		</g>
		<g>
			<g>
				<path class="st5" d="M383.1,464c-1.2,0-2.5-0.5-3.4-1.4c-46.2-44.8-84-96.7-112.5-154.4c-1.2-2.4-0.2-5.3,2.2-6.5
					c2.4-1.2,5.3-0.2,6.5,2.2c26.1,52.9,60.2,100.8,101.5,142.7c-1.1-22.4-0.7-44.8,1.1-66.7c0.1-1.3,0.7-2.5,1.7-3.3
					s2.3-1.2,3.6-1.1c21.1,2.1,42.2,2.8,62.9,2c-31.9-32.5-58.6-69.4-79.5-109.9c-1.2-2.4-0.3-5.3,2.1-6.6c2.4-1.2,5.3-0.3,6.6,2.1
					c22.1,42.8,50.9,81.6,85.5,115.1c1.4,1.3,1.8,3.4,1.2,5.2c-0.7,1.8-2.3,3.1-4.3,3.2c-23.1,1.4-46.8,1.1-70.4-1
					c-1.8,24-1.8,48.6,0.1,73.1c0.2,2-1,3.9-2.8,4.8C384.5,463.9,383.8,464,383.1,464z"/>
			</g>
		</g>
		<g>
			<g>
				<path class="st5" d="M106,491.3c-0.7,0-1.4-0.2-2.1-0.5c-1.8-0.9-2.9-2.8-2.8-4.8c1.9-24.6,1.9-49.1,0.1-73.1
					c-23.7,2.1-47.4,2.5-70.4,1c-1.9-0.1-3.6-1.4-4.3-3.2c-0.7-1.8-0.2-3.8,1.2-5.2c45.6-44.2,81.8-98.8,104.8-158
					c1-2.5,3.8-3.7,6.3-2.8c2.5,1,3.7,3.8,2.8,6.3c-22.2,57-56.4,109.9-99.2,153.7c20.7,0.8,41.8,0.1,62.9-2
					c1.3-0.1,2.6,0.3,3.6,1.1c1,0.8,1.6,2,1.7,3.3c1.9,21.9,2.3,44.3,1.2,66.7c38.3-38.9,70.4-83,95.8-131.4
					c1.2-2.4,4.2-3.3,6.6-2.1c2.4,1.2,3.3,4.2,2.1,6.6c-27.8,53.1-63.6,101.1-106.7,142.8C108.5,490.8,107.3,491.3,106,491.3z"/>
			</g>
		</g>
	</g>
</g>
</svg>
