<?xml version="1.0" encoding="utf-8"?>
<!-- Generator: Adobe Illustrator 22.1.0, SVG Export Plug-In . SVG Version: 6.00 Build 0)  -->
<svg version="1.1" id="Layer_1" xmlns="http://www.w3.org/2000/svg" xmlns:xlink="http://www.w3.org/1999/xlink" x="0px" y="0px"
	 viewBox="0 0 500 500" style="enable-background:new 0 0 500 500;" xml:space="preserve">
<style type="text/css">
	.st0{fill:#6E6F71;}
</style>
<g>
	<g>
		<g>
			<path class="st0" d="M456.2,466.6H43.5c-19.6,0-35.6-16-35.6-35.6v-362c0-19.6,16-35.6,35.6-35.6h412.7c19.6,0,35.6,16,35.6,35.6
				v362C491.8,450.6,475.8,466.6,456.2,466.6z M43.5,48.4C32.2,48.4,23,57.6,23,68.9v362c0,11.3,9.2,20.5,20.5,20.5h412.7
				c11.3,0,20.5-9.2,20.5-20.5v-362c0-11.3-9.2-20.5-20.5-20.5H43.5z"/>
		</g>
		<g>
			<path class="st0" d="M484.2,152.4H15.4c-4.2,0-7.6-3.4-7.6-7.6c0-4.2,3.4-7.6,7.6-7.6h468.8c4.2,0,7.6,3.4,7.6,7.6
				C491.8,149,488.4,152.4,484.2,152.4z"/>
		</g>
		<g>
			<path class="st0" d="M70.8,113.1c-9.7,0-17.6-7.9-17.6-17.6c0-9.7,7.9-17.6,17.6-17.6c9.7,0,17.6,7.9,17.6,17.6
				C88.4,105.2,80.5,113.1,70.8,113.1z M70.8,93c-1.4,0-2.5,1.1-2.5,2.5c0,1.4,1.1,2.5,2.5,2.5c1.4,0,2.5-1.1,2.5-2.5
				C73.3,94.1,72.1,93,70.8,93z"/>
		</g>
		<g>
			<path class="st0" d="M123.1,113.1c-9.7,0-17.6-7.9-17.6-17.6c0-9.7,7.9-17.6,17.6-17.6c9.7,0,17.6,7.9,17.6,17.6
				C140.7,105.2,132.8,113.1,123.1,113.1z M123.1,93c-1.4,0-2.5,1.1-2.5,2.5c0,1.4,1.1,2.5,2.5,2.5c1.4,0,2.5-1.1,2.5-2.5
				C125.6,94.1,124.5,93,123.1,93z"/>
		</g>
		<g>
			<path class="st0" d="M177.5,113.1c-9.7,0-17.6-7.9-17.6-17.6c0-9.7,7.9-17.6,17.6-17.6c9.7,0,17.6,7.9,17.6,17.6
				C195.1,105.2,187.2,113.1,177.5,113.1z M177.5,93c-1.4,0-2.5,1.1-2.5,2.5c0,1.4,1.1,2.5,2.5,2.5c1.4,0,2.5-1.1,2.5-2.5
				C180,94.1,178.9,93,177.5,93z"/>
		</g>
	</g>
	<g>
		<g>
			<path class="st0" d="M187.3,466.6c-3.2,0-6.2-2.1-7.2-5.4c-9.6-31.7-11.5-64.5-5.6-97.3c9.9-54.9,40.5-102.7,86.3-134.6
				c45.8-31.9,101.3-44,156.2-34.1c25.4,4.6,49.4,13.6,71.2,26.8c3.6,2.2,4.7,6.8,2.5,10.4c-2.2,3.6-6.8,4.7-10.4,2.6
				c-20.3-12.3-42.5-20.6-66.1-24.9c-105.2-18.9-206.1,51.3-225,156.5c-5.5,30.5-3.7,60.8,5.2,90.3c1.2,4-1,8.2-5,9.4
				C188.7,466.5,188,466.6,187.3,466.6z"/>
		</g>
		<g>
			<path class="st0" d="M255.6,465.6c-3.9,0-7.2-3-7.5-7c-1.9-26.2-0.4-53.3,4.5-80.7c20.3-113.4,94.1-195.3,164.3-182.7
				c30.5,5.5,56.9,28.2,74.1,64.1c1.8,3.8,0.2,8.3-3.5,10.1c-3.8,1.8-8.3,0.2-10.1-3.5c-15.1-31.4-37.5-51.2-63.2-55.8
				c-62.1-11.1-127.9,65.4-146.8,170.5c-4.7,26.1-6.1,52-4.3,76.9c0.3,4.2-2.8,7.8-7,8.1C256,465.6,255.8,465.6,255.6,465.6z"/>
		</g>
		<g>
			<path class="st0" d="M484.3,310.7c-0.4,0-0.9,0-1.3-0.1L351.6,287c-4.1-0.7-6.8-4.7-6.1-8.8c0.7-4.1,4.7-6.8,8.8-6.1l131.4,23.6
				c4.1,0.7,6.8,4.7,6.1,8.8C491,308.1,487.8,310.7,484.3,310.7z"/>
		</g>
		<g>
			<path class="st0" d="M301.6,277.9c-0.4,0-0.9,0-1.3-0.1L236,266.2c-4.1-0.7-6.8-4.7-6.1-8.8c0.7-4.1,4.7-6.8,8.8-6.1l64.3,11.5
				c4.1,0.7,6.8,4.7,6.1,8.8C308.4,275.3,305.2,277.9,301.6,277.9z"/>
		</g>
		<g>
			<path class="st0" d="M484.2,427.1c-0.4,0-0.9,0-1.3-0.1l-302.4-54.3c-4.1-0.7-6.8-4.7-6.1-8.8c0.7-4.1,4.7-6.8,8.8-6.1
				l302.4,54.3c4.1,0.7,6.8,4.7,6.1,8.8C491,424.5,487.8,427.1,484.2,427.1z"/>
		</g>
		<g>
			<path class="st0" d="M364.5,466.6c-0.4,0-0.9,0-1.3-0.1c-4.1-0.7-6.8-4.7-6.1-8.8l46.1-257.1c0.7-4.1,4.7-6.8,8.8-6.1
				c4.1,0.7,6.8,4.7,6.1,8.8l-46.1,257.1C371.3,464,368.1,466.6,364.5,466.6z"/>
		</g>
	</g>
</g>
</svg>
